<svg width="1008" height="392" viewBox="0 0 1008 392" fill="none" xmlns="http://www.w3.org/2000/svg">
<path d="M0 0H1008V392H0V0Z" fill="#262626"/>
<path d="M517.734 34.4149C517.734 30.5489 520.868 27.4149 524.734 27.4149H972.734C976.6 27.4149 979.734 30.5489 979.734 34.4149V174.415C979.734 178.281 976.6 181.415 972.734 181.415H524.734C520.868 181.415 517.734 178.281 517.734 174.415V34.4149Z" fill="#171717"/>
<path d="M518.622 34.7806C518.622 30.9146 521.757 27.7806 525.622 27.7806H527.372V181.781H525.622C521.757 181.781 518.622 178.647 518.622 174.781V34.7806Z" fill="#ED4245"/>
<path d="M543.736 99.4205C543.736 95.5545 546.87 92.4205 550.736 92.4205H886.736C890.602 92.4205 893.736 95.5545 893.736 99.4205V116.921C893.736 120.786 890.602 123.921 886.736 123.921H550.736C546.87 123.921 543.736 120.786 543.736 116.921V99.4205Z" fill="#262626"/>
<path d="M543.736 147.058C543.736 143.192 546.87 140.058 550.736 140.058H624.236C628.102 140.058 631.236 143.192 631.236 147.058V157.558C631.236 161.424 628.102 164.558 624.236 164.558H550.736C546.87 164.558 543.736 161.424 543.736 157.558V147.058Z" fill="#353535"/>
<path d="M544.429 61.3802C544.429 59.9242 544.744 58.6292 545.374 57.4952C546.004 56.3472 546.879 55.4582 547.999 54.8282C549.133 54.1842 550.414 53.8622 551.842 53.8622C553.592 53.8622 555.09 54.3242 556.336 55.2482C557.582 56.1722 558.415 57.4322 558.835 59.0282H554.887C554.593 58.4122 554.173 57.9432 553.627 57.6212C553.095 57.2992 552.486 57.1382 551.8 57.1382C550.694 57.1382 549.798 57.5232 549.112 58.2932C548.426 59.0632 548.083 60.0922 548.083 61.3802C548.083 62.6682 548.426 63.6972 549.112 64.4672C549.798 65.2372 550.694 65.6222 551.8 65.6222C552.486 65.6222 553.095 65.4612 553.627 65.1392C554.173 64.8172 554.593 64.3482 554.887 63.7322H558.835C558.415 65.3282 557.582 66.5882 556.336 67.5122C555.09 68.4222 553.592 68.8772 551.842 68.8772C550.414 68.8772 549.133 68.5622 547.999 67.9322C546.879 67.2882 546.004 66.3992 545.374 65.2652C544.744 64.1312 544.429 62.8362 544.429 61.3802Z" fill="white"/>
<path d="M568.237 56.9282C569.581 56.9282 570.659 57.3762 571.471 58.2722C572.283 59.1542 572.689 60.3722 572.689 61.9262V68.7722H569.119V62.4092C569.119 61.6252 568.916 61.0162 568.51 60.5822C568.104 60.1482 567.558 59.9312 566.872 59.9312C566.186 59.9312 565.64 60.1482 565.234 60.5822C564.828 61.0162 564.625 61.6252 564.625 62.4092V68.7722H561.034V53.2322H564.625V58.6292C564.989 58.1112 565.486 57.6982 566.116 57.3902C566.746 57.0822 567.453 56.9282 568.237 56.9282Z" fill="white"/>
<path d="M574.47 62.8922C574.47 61.6882 574.694 60.6312 575.142 59.7212C575.604 58.8112 576.227 58.1112 577.011 57.6212C577.795 57.1312 578.67 56.8862 579.636 56.8862C580.462 56.8862 581.183 57.0542 581.799 57.3902C582.429 57.7262 582.912 58.1672 583.248 58.7132V57.0542H586.839V68.7722H583.248V67.1132C582.898 67.6592 582.408 68.1002 581.778 68.4362C581.162 68.7722 580.441 68.9402 579.615 68.9402C578.663 68.9402 577.795 68.6952 577.011 68.2052C576.227 67.7012 575.604 66.9942 575.142 66.0842C574.694 65.1602 574.47 64.0962 574.47 62.8922ZM583.248 62.9132C583.248 62.0172 582.996 61.3102 582.492 60.7922C582.002 60.2742 581.4 60.0152 580.686 60.0152C579.972 60.0152 579.363 60.2742 578.859 60.7922C578.369 61.2962 578.124 61.9962 578.124 62.8922C578.124 63.7882 578.369 64.5022 578.859 65.0342C579.363 65.5522 579.972 65.8112 580.686 65.8112C581.4 65.8112 582.002 65.5522 582.492 65.0342C582.996 64.5162 583.248 63.8092 583.248 62.9132Z" fill="white"/>
<path d="M596.577 56.9282C597.949 56.9282 599.041 57.3762 599.853 58.2722C600.679 59.1542 601.092 60.3722 601.092 61.9262V68.7722H597.522V62.4092C597.522 61.6252 597.319 61.0162 596.913 60.5822C596.507 60.1482 595.961 59.9312 595.275 59.9312C594.589 59.9312 594.043 60.1482 593.637 60.5822C593.231 61.0162 593.028 61.6252 593.028 62.4092V68.7722H589.437V57.0542H593.028V58.6082C593.392 58.0902 593.882 57.6842 594.498 57.3902C595.114 57.0822 595.807 56.9282 596.577 56.9282Z" fill="white"/>
<path d="M610.728 56.9282C612.1 56.9282 613.192 57.3762 614.004 58.2722C614.83 59.1542 615.243 60.3722 615.243 61.9262V68.7722H611.673V62.4092C611.673 61.6252 611.47 61.0162 611.064 60.5822C610.658 60.1482 610.112 59.9312 609.426 59.9312C608.74 59.9312 608.194 60.1482 607.788 60.5822C607.382 61.0162 607.179 61.6252 607.179 62.4092V68.7722H603.588V57.0542H607.179V58.6082C607.543 58.0902 608.033 57.6842 608.649 57.3902C609.265 57.0822 609.958 56.9282 610.728 56.9282Z" fill="white"/>
<path d="M628.784 62.7242C628.784 63.0602 628.763 63.4102 628.721 63.7742H620.594C620.65 64.5022 620.881 65.0622 621.287 65.4542C621.707 65.8322 622.218 66.0212 622.82 66.0212C623.716 66.0212 624.339 65.6432 624.689 64.8872H628.511C628.315 65.6572 627.958 66.3502 627.44 66.9662C626.936 67.5822 626.299 68.0652 625.529 68.4152C624.759 68.7652 623.898 68.9402 622.946 68.9402C621.798 68.9402 620.776 68.6952 619.88 68.2052C618.984 67.7152 618.284 67.0152 617.78 66.1052C617.276 65.1952 617.024 64.1312 617.024 62.9132C617.024 61.6952 617.269 60.6312 617.759 59.7212C618.263 58.8112 618.963 58.1112 619.859 57.6212C620.755 57.1312 621.784 56.8862 622.946 56.8862C624.08 56.8862 625.088 57.1242 625.97 57.6002C626.852 58.0762 627.538 58.7552 628.028 59.6372C628.532 60.5192 628.784 61.5482 628.784 62.7242ZM625.109 61.7792C625.109 61.1632 624.899 60.6732 624.479 60.3092C624.059 59.9452 623.534 59.7632 622.904 59.7632C622.302 59.7632 621.791 59.9382 621.371 60.2882C620.965 60.6382 620.713 61.1352 620.615 61.7792H625.109Z" fill="white"/>
<path d="M634.27 53.2322V68.7722H630.679V53.2322H634.27Z" fill="white"/>
<path d="M646.845 54.0302C648.399 54.0302 649.757 54.3382 650.919 54.9542C652.081 55.5702 652.977 56.4382 653.607 57.5582C654.251 58.6642 654.573 59.9452 654.573 61.4012C654.573 62.8432 654.251 64.1242 653.607 65.2442C652.977 66.3642 652.074 67.2322 650.898 67.8482C649.736 68.4642 648.385 68.7722 646.845 68.7722H641.322V54.0302H646.845ZM646.614 65.6642C647.972 65.6642 649.029 65.2932 649.785 64.5512C650.541 63.8092 650.919 62.7592 650.919 61.4012C650.919 60.0432 650.541 58.9862 649.785 58.2302C649.029 57.4742 647.972 57.0962 646.614 57.0962H644.913V65.6642H646.614Z" fill="white"/>
<path d="M667.626 62.7242C667.626 63.0602 667.605 63.4102 667.563 63.7742H659.436C659.492 64.5022 659.723 65.0622 660.129 65.4542C660.549 65.8322 661.06 66.0212 661.662 66.0212C662.558 66.0212 663.181 65.6432 663.531 64.8872H667.353C667.157 65.6572 666.8 66.3502 666.282 66.9662C665.778 67.5822 665.141 68.0652 664.371 68.4152C663.601 68.7652 662.74 68.9402 661.788 68.9402C660.64 68.9402 659.618 68.6952 658.722 68.2052C657.826 67.7152 657.126 67.0152 656.622 66.1052C656.118 65.1952 655.866 64.1312 655.866 62.9132C655.866 61.6952 656.111 60.6312 656.601 59.7212C657.105 58.8112 657.805 58.1112 658.701 57.6212C659.597 57.1312 660.626 56.8862 661.788 56.8862C662.922 56.8862 663.93 57.1242 664.812 57.6002C665.694 58.0762 666.38 58.7552 666.87 59.6372C667.374 60.5192 667.626 61.5482 667.626 62.7242ZM663.951 61.7792C663.951 61.1632 663.741 60.6732 663.321 60.3092C662.901 59.9452 662.376 59.7632 661.746 59.7632C661.144 59.7632 660.633 59.9382 660.213 60.2882C659.807 60.6382 659.555 61.1352 659.457 61.7792H663.951Z" fill="white"/>
<path d="M673.111 53.2322V68.7722H669.52V53.2322H673.111Z" fill="white"/>
<path d="M686.76 62.7242C686.76 63.0602 686.739 63.4102 686.697 63.7742H678.57C678.626 64.5022 678.857 65.0622 679.263 65.4542C679.683 65.8322 680.194 66.0212 680.796 66.0212C681.692 66.0212 682.315 65.6432 682.665 64.8872H686.487C686.291 65.6572 685.934 66.3502 685.416 66.9662C684.912 67.5822 684.275 68.0652 683.505 68.4152C682.735 68.7652 681.874 68.9402 680.922 68.9402C679.774 68.9402 678.752 68.6952 677.856 68.2052C676.96 67.7152 676.26 67.0152 675.756 66.1052C675.252 65.1952 675 64.1312 675 62.9132C675 61.6952 675.245 60.6312 675.735 59.7212C676.239 58.8112 676.939 58.1112 677.835 57.6212C678.731 57.1312 679.76 56.8862 680.922 56.8862C682.056 56.8862 683.064 57.1242 683.946 57.6002C684.828 58.0762 685.514 58.7552 686.004 59.6372C686.508 60.5192 686.76 61.5482 686.76 62.7242ZM683.085 61.7792C683.085 61.1632 682.875 60.6732 682.455 60.3092C682.035 59.9452 681.51 59.7632 680.88 59.7632C680.278 59.7632 679.767 59.9382 679.347 60.2882C678.941 60.6382 678.689 61.1352 678.591 61.7792H683.085Z" fill="white"/>
<path d="M695.185 65.7272V68.7722H693.358C692.056 68.7722 691.041 68.4572 690.313 67.8272C689.585 67.1832 689.221 66.1402 689.221 64.6982V60.0362H687.793V57.0542H689.221V54.1982H692.812V57.0542H695.164V60.0362H692.812V64.7402C692.812 65.0902 692.896 65.3422 693.064 65.4962C693.232 65.6502 693.512 65.7272 693.904 65.7272H695.185Z" fill="white"/>
<path d="M708.231 62.7242C708.231 63.0602 708.21 63.4102 708.168 63.7742H700.041C700.097 64.5022 700.328 65.0622 700.734 65.4542C701.154 65.8322 701.665 66.0212 702.267 66.0212C703.163 66.0212 703.786 65.6432 704.136 64.8872H707.958C707.762 65.6572 707.405 66.3502 706.887 66.9662C706.383 67.5822 705.746 68.0652 704.976 68.4152C704.206 68.7652 703.345 68.9402 702.393 68.9402C701.245 68.9402 700.223 68.6952 699.327 68.2052C698.431 67.7152 697.731 67.0152 697.227 66.1052C696.723 65.1952 696.471 64.1312 696.471 62.9132C696.471 61.6952 696.716 60.6312 697.206 59.7212C697.71 58.8112 698.41 58.1112 699.306 57.6212C700.202 57.1312 701.231 56.8862 702.393 56.8862C703.527 56.8862 704.535 57.1242 705.417 57.6002C706.299 58.0762 706.985 58.7552 707.475 59.6372C707.979 60.5192 708.231 61.5482 708.231 62.7242ZM704.556 61.7792C704.556 61.1632 704.346 60.6732 703.926 60.3092C703.506 59.9452 702.981 59.7632 702.351 59.7632C701.749 59.7632 701.238 59.9382 700.818 60.2882C700.412 60.6382 700.16 61.1352 700.062 61.7792H704.556Z" fill="white"/>
<path d="M709.412 62.8922C709.412 61.6882 709.636 60.6312 710.084 59.7212C710.546 58.8112 711.169 58.1112 711.953 57.6212C712.737 57.1312 713.612 56.8862 714.578 56.8862C715.348 56.8862 716.048 57.0472 716.678 57.3692C717.322 57.6912 717.826 58.1252 718.19 58.6712V53.2322H721.781V68.7722H718.19V67.0922C717.854 67.6522 717.371 68.1002 716.741 68.4362C716.125 68.7722 715.404 68.9402 714.578 68.9402C713.612 68.9402 712.737 68.6952 711.953 68.2052C711.169 67.7012 710.546 66.9942 710.084 66.0842C709.636 65.1602 709.412 64.0962 709.412 62.8922ZM718.19 62.9132C718.19 62.0172 717.938 61.3102 717.434 60.7922C716.944 60.2742 716.342 60.0152 715.628 60.0152C714.914 60.0152 714.305 60.2742 713.801 60.7922C713.311 61.2962 713.066 61.9962 713.066 62.8922C713.066 63.7882 713.311 64.5022 713.801 65.0342C714.305 65.5522 714.914 65.8112 715.628 65.8112C716.342 65.8112 716.944 65.5522 717.434 65.0342C717.938 64.5162 718.19 63.8092 718.19 62.9132Z" fill="white"/>
<path d="M517.734 217.585C517.734 213.719 520.868 210.585 524.734 210.585H972.734C976.6 210.585 979.734 213.719 979.734 217.585V357.585C979.734 361.451 976.6 364.585 972.734 364.585H524.734C520.868 364.585 517.734 361.451 517.734 357.585V217.585Z" fill="#171717"/>
<path d="M518.622 217.951C518.622 214.085 521.757 210.951 525.622 210.951H527.372V364.951H525.622C521.757 364.951 518.622 361.817 518.622 357.951V217.951Z" fill="#57F287"/>
<path d="M543.736 282.591C543.736 278.725 546.87 275.591 550.736 275.591H886.736C890.602 275.591 893.736 278.725 893.736 282.591V300.091C893.736 303.957 890.602 307.091 886.736 307.091H550.736C546.87 307.091 543.736 303.957 543.736 300.091V282.591Z" fill="#262626"/>
<path d="M543.736 330.228C543.736 326.362 546.87 323.228 550.736 323.228H624.236C628.102 323.228 631.236 326.362 631.236 330.228V340.728C631.236 344.594 628.102 347.728 624.236 347.728H550.736C546.87 347.728 543.736 344.594 543.736 340.728V330.228Z" fill="#353535"/>
<path d="M558.226 251.942H554.635L548.629 242.849V251.942H545.038V237.2H548.629L554.635 246.335V237.2H558.226V251.942Z" fill="white"/>
<path d="M571.875 245.894C571.875 246.23 571.854 246.58 571.812 246.944H563.685C563.741 247.672 563.972 248.232 564.378 248.624C564.798 249.002 565.309 249.191 565.911 249.191C566.807 249.191 567.43 248.813 567.78 248.057H571.602C571.406 248.827 571.049 249.52 570.531 250.136C570.027 250.752 569.39 251.235 568.62 251.585C567.85 251.935 566.989 252.11 566.037 252.11C564.889 252.11 563.867 251.865 562.971 251.375C562.075 250.885 561.375 250.185 560.871 249.275C560.367 248.365 560.115 247.301 560.115 246.083C560.115 244.865 560.36 243.801 560.85 242.891C561.354 241.981 562.054 241.281 562.95 240.791C563.846 240.301 564.875 240.056 566.037 240.056C567.171 240.056 568.179 240.294 569.061 240.77C569.943 241.246 570.629 241.925 571.119 242.807C571.623 243.689 571.875 244.718 571.875 245.894ZM568.2 244.949C568.2 244.333 567.99 243.843 567.57 243.479C567.15 243.115 566.625 242.933 565.995 242.933C565.393 242.933 564.882 243.108 564.462 243.458C564.056 243.808 563.804 244.305 563.706 244.949H568.2Z" fill="white"/>
<path d="M590.59 240.224L587.419 251.942H583.45L581.602 244.34L579.691 251.942H575.743L572.551 240.224H576.142L577.801 248.603L579.775 240.224H583.576L585.571 248.561L587.209 240.224H590.59Z" fill="white"/>
<path d="M613.105 237.2V251.942H609.514V243.101L606.217 251.942H603.319L600.001 243.08V251.942H596.41V237.2H600.652L604.789 247.406L608.884 237.2H613.105Z" fill="white"/>
<path d="M626.733 245.894C626.733 246.23 626.712 246.58 626.67 246.944H618.543C618.599 247.672 618.83 248.232 619.236 248.624C619.656 249.002 620.167 249.191 620.769 249.191C621.665 249.191 622.288 248.813 622.638 248.057H626.46C626.264 248.827 625.907 249.52 625.389 250.136C624.885 250.752 624.248 251.235 623.478 251.585C622.708 251.935 621.847 252.11 620.895 252.11C619.747 252.11 618.725 251.865 617.829 251.375C616.933 250.885 616.233 250.185 615.729 249.275C615.225 248.365 614.973 247.301 614.973 246.083C614.973 244.865 615.218 243.801 615.708 242.891C616.212 241.981 616.912 241.281 617.808 240.791C618.704 240.301 619.733 240.056 620.895 240.056C622.029 240.056 623.037 240.294 623.919 240.77C624.801 241.246 625.487 241.925 625.977 242.807C626.481 243.689 626.733 244.718 626.733 245.894ZM623.058 244.949C623.058 244.333 622.848 243.843 622.428 243.479C622.008 243.115 621.483 242.933 620.853 242.933C620.251 242.933 619.74 243.108 619.32 243.458C618.914 243.808 618.662 244.305 618.564 244.949H623.058Z" fill="white"/>
<path d="M643.58 240.098C645.036 240.098 646.191 240.539 647.045 241.421C647.913 242.303 648.347 243.528 648.347 245.096V251.942H644.777V245.579C644.777 244.823 644.574 244.242 644.168 243.836C643.776 243.416 643.23 243.206 642.53 243.206C641.83 243.206 641.277 243.416 640.871 243.836C640.479 244.242 640.283 244.823 640.283 245.579V251.942H636.713V245.579C636.713 244.823 636.51 244.242 636.104 243.836C635.712 243.416 635.166 243.206 634.466 243.206C633.766 243.206 633.213 243.416 632.807 243.836C632.415 244.242 632.219 244.823 632.219 245.579V251.942H628.628V240.224H632.219V241.694C632.583 241.204 633.059 240.819 633.647 240.539C634.235 240.245 634.9 240.098 635.642 240.098C636.524 240.098 637.308 240.287 637.994 240.665C638.694 241.043 639.24 241.582 639.632 242.282C640.038 241.638 640.591 241.113 641.291 240.707C641.991 240.301 642.754 240.098 643.58 240.098Z" fill="white"/>
<path d="M654.449 241.883C654.785 241.337 655.268 240.896 655.898 240.56C656.528 240.224 657.249 240.056 658.061 240.056C659.027 240.056 659.902 240.301 660.686 240.791C661.47 241.281 662.086 241.981 662.534 242.891C662.996 243.801 663.227 244.858 663.227 246.062C663.227 247.266 662.996 248.33 662.534 249.254C662.086 250.164 661.47 250.871 660.686 251.375C659.902 251.865 659.027 252.11 658.061 252.11C657.235 252.11 656.514 251.949 655.898 251.627C655.282 251.291 654.799 250.85 654.449 250.304V251.942H650.858V236.402H654.449V241.883ZM659.573 246.062C659.573 245.166 659.321 244.466 658.817 243.962C658.327 243.444 657.718 243.185 656.99 243.185C656.276 243.185 655.667 243.444 655.163 243.962C654.673 244.48 654.428 245.187 654.428 246.083C654.428 246.979 654.673 247.686 655.163 248.204C655.667 248.722 656.276 248.981 656.99 248.981C657.704 248.981 658.313 248.722 658.817 248.204C659.321 247.672 659.573 246.958 659.573 246.062Z" fill="white"/>
<path d="M676.157 245.894C676.157 246.23 676.136 246.58 676.094 246.944H667.967C668.023 247.672 668.254 248.232 668.66 248.624C669.08 249.002 669.591 249.191 670.193 249.191C671.089 249.191 671.712 248.813 672.062 248.057H675.884C675.688 248.827 675.331 249.52 674.813 250.136C674.309 250.752 673.672 251.235 672.902 251.585C672.132 251.935 671.271 252.11 670.319 252.11C669.171 252.11 668.149 251.865 667.253 251.375C666.357 250.885 665.657 250.185 665.153 249.275C664.649 248.365 664.397 247.301 664.397 246.083C664.397 244.865 664.642 243.801 665.132 242.891C665.636 241.981 666.336 241.281 667.232 240.791C668.128 240.301 669.157 240.056 670.319 240.056C671.453 240.056 672.461 240.294 673.343 240.77C674.225 241.246 674.911 241.925 675.401 242.807C675.905 243.689 676.157 244.718 676.157 245.894ZM672.482 244.949C672.482 244.333 672.272 243.843 671.852 243.479C671.432 243.115 670.907 242.933 670.277 242.933C669.675 242.933 669.164 243.108 668.744 243.458C668.338 243.808 668.086 244.305 667.988 244.949H672.482Z" fill="white"/>
<path d="M681.643 242.177C682.063 241.533 682.588 241.029 683.218 240.665C683.848 240.287 684.548 240.098 685.318 240.098V243.899H684.331C683.435 243.899 682.763 244.095 682.315 244.487C681.867 244.865 681.643 245.537 681.643 246.503V251.942H678.052V240.224H681.643V242.177Z" fill="white"/>
<path d="M28.2662 34.0492C28.2662 30.1832 31.4002 27.0492 35.2662 27.0492H483.266C487.132 27.0492 490.266 30.1832 490.266 34.0492V174.049C490.266 177.915 487.132 181.049 483.266 181.049H35.2662C31.4002 181.049 28.2662 177.915 28.2662 174.049V34.0492Z" fill="#171717"/>
<path d="M29.1548 34.4149C29.1548 30.5489 32.2889 27.4149 36.1548 27.4149H37.9048V181.415H36.1548C32.2889 181.415 29.1548 178.281 29.1548 174.415V34.4149Z" fill="#5865F2"/>
<path d="M54.2683 99.0548C54.2683 95.1888 57.4023 92.0548 61.2683 92.0548H397.268C401.134 92.0548 404.268 95.1888 404.268 99.0548V116.555C404.268 120.421 401.134 123.555 397.268 123.555H61.2682C57.4023 123.555 54.2683 120.421 54.2683 116.555V99.0548Z" fill="#262626"/>
<path d="M54.2683 146.692C54.2683 142.826 57.4023 139.692 61.2683 139.692H134.768C138.634 139.692 141.768 142.826 141.768 146.692V157.192C141.768 161.058 138.634 164.192 134.768 164.192H61.2683C57.4023 164.192 54.2683 161.058 54.2683 157.192V146.692Z" fill="#353535"/>
<path d="M63.0883 68.4065L60.0223 62.8415H59.1613V68.4065H55.5703V53.6645H61.5973C62.7593 53.6645 63.7463 53.8675 64.5583 54.2735C65.3843 54.6795 66.0003 55.2395 66.4063 55.9535C66.8123 56.6535 67.0153 57.4375 67.0153 58.3055C67.0153 59.2855 66.7353 60.1605 66.1753 60.9305C65.6293 61.7005 64.8172 62.2465 63.7392 62.5685L67.1412 68.4065H63.0883ZM59.1613 60.3005H61.3873C62.0453 60.3005 62.5353 60.1395 62.8573 59.8175C63.1933 59.4955 63.3612 59.0405 63.3612 58.4525C63.3612 57.8925 63.1933 57.4515 62.8573 57.1295C62.5353 56.8075 62.0453 56.6465 61.3873 56.6465H59.1613V60.3005Z" fill="white"/>
<path d="M74.6035 68.5745C73.4555 68.5745 72.4195 68.3295 71.4955 67.8395C70.5855 67.3495 69.8645 66.6495 69.3325 65.7395C68.8145 64.8295 68.5555 63.7655 68.5555 62.5475C68.5555 61.3435 68.8215 60.2865 69.3535 59.3765C69.8855 58.4525 70.6135 57.7455 71.5375 57.2555C72.4615 56.7655 73.4975 56.5205 74.6455 56.5205C75.7935 56.5205 76.8295 56.7655 77.7535 57.2555C78.6775 57.7455 79.4055 58.4525 79.9375 59.3765C80.4695 60.2865 80.7355 61.3435 80.7355 62.5475C80.7355 63.7515 80.4625 64.8155 79.9165 65.7395C79.3845 66.6495 78.6495 67.3495 77.7115 67.8395C76.7875 68.3295 75.7515 68.5745 74.6035 68.5745ZM74.6035 65.4665C75.2895 65.4665 75.8705 65.2145 76.3465 64.7105C76.8365 64.2065 77.0815 63.4855 77.0815 62.5475C77.0815 61.6095 76.8435 60.8885 76.3675 60.3845C75.9055 59.8805 75.3315 59.6285 74.6455 59.6285C73.9455 59.6285 73.3645 59.8805 72.9025 60.3845C72.4405 60.8745 72.2095 61.5955 72.2095 62.5475C72.2095 63.4855 72.4335 64.2065 72.8815 64.7105C73.3435 65.2145 73.9175 65.4665 74.6035 65.4665Z" fill="white"/>
<path d="M86.2316 52.8665V68.4065H82.6406V52.8665H86.2316Z" fill="white"/>
<path d="M99.8799 62.3585C99.8799 62.6945 99.8589 63.0445 99.8169 63.4085H91.6899C91.7459 64.1365 91.9769 64.6965 92.3829 65.0885C92.8029 65.4665 93.3139 65.6555 93.9159 65.6555C94.8119 65.6555 95.4349 65.2775 95.7849 64.5215H99.6069C99.4109 65.2915 99.0539 65.9845 98.5359 66.6005C98.0319 67.2165 97.3949 67.6995 96.6249 68.0495C95.8549 68.3995 94.9939 68.5745 94.0419 68.5745C92.8939 68.5745 91.8719 68.3295 90.9759 67.8395C90.0799 67.3495 89.3799 66.6495 88.8759 65.7395C88.3719 64.8295 88.1199 63.7655 88.1199 62.5475C88.1199 61.3295 88.3649 60.2655 88.8549 59.3555C89.3589 58.4455 90.0589 57.7455 90.9549 57.2555C91.8509 56.7655 92.8799 56.5205 94.0419 56.5205C95.1759 56.5205 96.1839 56.7585 97.0659 57.2345C97.9479 57.7105 98.6339 58.3895 99.1239 59.2715C99.6279 60.1535 99.8799 61.1825 99.8799 62.3585ZM96.2049 61.4135C96.2049 60.7975 95.9949 60.3075 95.5749 59.9435C95.1549 59.5795 94.6299 59.3975 93.9999 59.3975C93.3979 59.3975 92.8869 59.5725 92.4669 59.9225C92.0609 60.2725 91.8089 60.7695 91.7109 61.4135H96.2049Z" fill="white"/>
<path d="M106.541 68.5745C105.519 68.5745 104.609 68.3995 103.811 68.0495C103.013 67.6995 102.383 67.2235 101.921 66.6215C101.459 66.0055 101.2 65.3195 101.144 64.5635H104.693C104.735 64.9695 104.924 65.2985 105.26 65.5505C105.596 65.8025 106.009 65.9285 106.499 65.9285C106.947 65.9285 107.29 65.8445 107.528 65.6765C107.78 65.4945 107.906 65.2635 107.906 64.9835C107.906 64.6475 107.731 64.4025 107.381 64.2485C107.031 64.0805 106.464 63.8985 105.68 63.7025C104.84 63.5065 104.14 63.3035 103.58 63.0935C103.02 62.8695 102.537 62.5265 102.131 62.0645C101.725 61.5885 101.522 60.9515 101.522 60.1535C101.522 59.4815 101.704 58.8725 102.068 58.3265C102.446 57.7665 102.992 57.3255 103.706 57.0035C104.434 56.6815 105.295 56.5205 106.289 56.5205C107.759 56.5205 108.914 56.8845 109.754 57.6125C110.608 58.3405 111.098 59.3065 111.224 60.5105H107.906C107.85 60.1045 107.668 59.7825 107.36 59.5445C107.066 59.3065 106.674 59.1875 106.184 59.1875C105.764 59.1875 105.442 59.2715 105.218 59.4395C104.994 59.5935 104.882 59.8105 104.882 60.0905C104.882 60.4265 105.057 60.6785 105.407 60.8465C105.771 61.0145 106.331 61.1825 107.087 61.3505C107.955 61.5745 108.662 61.7985 109.208 62.0225C109.754 62.2325 110.23 62.5825 110.636 63.0725C111.056 63.5485 111.273 64.1925 111.287 65.0045C111.287 65.6905 111.091 66.3065 110.699 66.8525C110.321 67.3845 109.768 67.8045 109.04 68.1125C108.326 68.4205 107.493 68.5745 106.541 68.5745Z" fill="white"/>
<path d="M121.463 53.6645V62.4845C121.463 63.3665 121.68 64.0455 122.114 64.5215C122.548 64.9975 123.185 65.2355 124.025 65.2355C124.865 65.2355 125.509 64.9975 125.957 64.5215C126.405 64.0455 126.629 63.3665 126.629 62.4845V53.6645H130.22V62.4635C130.22 63.7795 129.94 64.8925 129.38 65.8025C128.82 66.7125 128.064 67.3985 127.112 67.8605C126.174 68.3225 125.124 68.5535 123.962 68.5535C122.8 68.5535 121.757 68.3295 120.833 67.8815C119.923 67.4195 119.202 66.7335 118.67 65.8235C118.138 64.8995 117.872 63.7795 117.872 62.4635V53.6645H121.463Z" fill="white"/>
<path d="M136.332 58.3475C136.682 57.8015 137.165 57.3605 137.781 57.0245C138.397 56.6885 139.118 56.5205 139.944 56.5205C140.91 56.5205 141.785 56.7655 142.569 57.2555C143.353 57.7455 143.969 58.4455 144.417 59.3555C144.879 60.2655 145.11 61.3225 145.11 62.5265C145.11 63.7305 144.879 64.7945 144.417 65.7185C143.969 66.6285 143.353 67.3355 142.569 67.8395C141.785 68.3295 140.91 68.5745 139.944 68.5745C139.132 68.5745 138.411 68.4065 137.781 68.0705C137.165 67.7345 136.682 67.3005 136.332 66.7685V73.9925H132.741V56.6885H136.332V58.3475ZM141.456 62.5265C141.456 61.6305 141.204 60.9305 140.7 60.4265C140.21 59.9085 139.601 59.6495 138.873 59.6495C138.159 59.6495 137.55 59.9085 137.046 60.4265C136.556 60.9445 136.311 61.6515 136.311 62.5475C136.311 63.4435 136.556 64.1505 137.046 64.6685C137.55 65.1865 138.159 65.4455 138.873 65.4455C139.587 65.4455 140.196 65.1865 140.7 64.6685C141.204 64.1365 141.456 63.4225 141.456 62.5265Z" fill="white"/>
<path d="M146.28 62.5265C146.28 61.3225 146.504 60.2655 146.952 59.3555C147.414 58.4455 148.037 57.7455 148.821 57.2555C149.605 56.7655 150.48 56.5205 151.446 56.5205C152.216 56.5205 152.916 56.6815 153.546 57.0035C154.19 57.3255 154.694 57.7595 155.058 58.3055V52.8665H158.649V68.4065H155.058V66.7265C154.722 67.2865 154.239 67.7345 153.609 68.0705C152.993 68.4065 152.272 68.5745 151.446 68.5745C150.48 68.5745 149.605 68.3295 148.821 67.8395C148.037 67.3355 147.414 66.6285 146.952 65.7185C146.504 64.7945 146.28 63.7305 146.28 62.5265ZM155.058 62.5475C155.058 61.6515 154.806 60.9445 154.302 60.4265C153.812 59.9085 153.21 59.6495 152.496 59.6495C151.782 59.6495 151.173 59.9085 150.669 60.4265C150.179 60.9305 149.934 61.6305 149.934 62.5265C149.934 63.4225 150.179 64.1365 150.669 64.6685C151.173 65.1865 151.782 65.4455 152.496 65.4455C153.21 65.4455 153.812 65.1865 154.302 64.6685C154.806 64.1505 155.058 63.4435 155.058 62.5475Z" fill="white"/>
<path d="M160.533 62.5265C160.533 61.3225 160.757 60.2655 161.205 59.3555C161.667 58.4455 162.29 57.7455 163.074 57.2555C163.858 56.7655 164.733 56.5205 165.699 56.5205C166.525 56.5205 167.246 56.6885 167.862 57.0245C168.492 57.3605 168.975 57.8015 169.311 58.3475V56.6885H172.902V68.4065H169.311V66.7475C168.961 67.2935 168.471 67.7345 167.841 68.0705C167.225 68.4065 166.504 68.5745 165.678 68.5745C164.726 68.5745 163.858 68.3295 163.074 67.8395C162.29 67.3355 161.667 66.6285 161.205 65.7185C160.757 64.7945 160.533 63.7305 160.533 62.5265ZM169.311 62.5475C169.311 61.6515 169.059 60.9445 168.555 60.4265C168.065 59.9085 167.463 59.6495 166.749 59.6495C166.035 59.6495 165.426 59.9085 164.922 60.4265C164.432 60.9305 164.187 61.6305 164.187 62.5265C164.187 63.4225 164.432 64.1365 164.922 64.6685C165.426 65.1865 166.035 65.4455 166.749 65.4455C167.463 65.4455 168.065 65.1865 168.555 64.6685C169.059 64.1505 169.311 63.4435 169.311 62.5475Z" fill="white"/>
<path d="M182.031 65.3615V68.4065H180.204C178.902 68.4065 177.887 68.0915 177.159 67.4615C176.431 66.8175 176.067 65.7745 176.067 64.3325V59.6705H174.639V56.6885H176.067V53.8325H179.658V56.6885H182.01V59.6705H179.658V64.3745C179.658 64.7245 179.742 64.9765 179.91 65.1305C180.078 65.2845 180.358 65.3615 180.75 65.3615H182.031Z" fill="white"/>
<path d="M195.077 62.3585C195.077 62.6945 195.056 63.0445 195.014 63.4085H186.887C186.943 64.1365 187.174 64.6965 187.58 65.0885C188 65.4665 188.511 65.6555 189.113 65.6555C190.009 65.6555 190.632 65.2775 190.982 64.5215H194.804C194.608 65.2915 194.251 65.9845 193.733 66.6005C193.229 67.2165 192.592 67.6995 191.822 68.0495C191.052 68.3995 190.191 68.5745 189.239 68.5745C188.091 68.5745 187.069 68.3295 186.173 67.8395C185.277 67.3495 184.577 66.6495 184.073 65.7395C183.569 64.8295 183.317 63.7655 183.317 62.5475C183.317 61.3295 183.562 60.2655 184.052 59.3555C184.556 58.4455 185.256 57.7455 186.152 57.2555C187.048 56.7655 188.077 56.5205 189.239 56.5205C190.373 56.5205 191.381 56.7585 192.263 57.2345C193.145 57.7105 193.831 58.3895 194.321 59.2715C194.825 60.1535 195.077 61.1825 195.077 62.3585ZM191.402 61.4135C191.402 60.7975 191.192 60.3075 190.772 59.9435C190.352 59.5795 189.827 59.3975 189.197 59.3975C188.595 59.3975 188.084 59.5725 187.664 59.9225C187.258 60.2725 187.006 60.7695 186.908 61.4135H191.402Z" fill="white"/>
<path d="M196.258 62.5265C196.258 61.3225 196.482 60.2655 196.93 59.3555C197.392 58.4455 198.015 57.7455 198.799 57.2555C199.583 56.7655 200.458 56.5205 201.424 56.5205C202.194 56.5205 202.894 56.6815 203.524 57.0035C204.168 57.3255 204.672 57.7595 205.036 58.3055V52.8665H208.627V68.4065H205.036V66.7265C204.7 67.2865 204.217 67.7345 203.587 68.0705C202.971 68.4065 202.25 68.5745 201.424 68.5745C200.458 68.5745 199.583 68.3295 198.799 67.8395C198.015 67.3355 197.392 66.6285 196.93 65.7185C196.482 64.7945 196.258 63.7305 196.258 62.5265ZM205.036 62.5475C205.036 61.6515 204.784 60.9445 204.28 60.4265C203.79 59.9085 203.188 59.6495 202.474 59.6495C201.76 59.6495 201.151 59.9085 200.647 60.4265C200.157 60.9305 199.912 61.6305 199.912 62.5265C199.912 63.4225 200.157 64.1365 200.647 64.6685C201.151 65.1865 201.76 65.4455 202.474 65.4455C203.188 65.4455 203.79 65.1865 204.28 64.6685C204.784 64.1505 205.036 63.4435 205.036 62.5475Z" fill="white"/>
<path d="M28.2662 217.219C28.2662 213.353 31.4002 210.219 35.2662 210.219H483.266C487.132 210.219 490.266 213.353 490.266 217.219V357.219C490.266 361.085 487.132 364.219 483.266 364.219H35.2662C31.4002 364.219 28.2662 361.085 28.2662 357.219V217.219Z" fill="#171717"/>
<path d="M29.1548 217.585C29.1548 213.719 32.2889 210.585 36.1548 210.585H37.9048V364.585H36.1548C32.2889 364.585 29.1548 361.451 29.1548 357.585V217.585Z" fill="#EB459E"/>
<path d="M54.2683 282.225C54.2683 278.359 57.4023 275.225 61.2683 275.225H397.268C401.134 275.225 404.268 278.359 404.268 282.225V299.725C404.268 303.591 401.134 306.725 397.268 306.725H61.2682C57.4023 306.725 54.2683 303.591 54.2683 299.725V282.225Z" fill="#262626"/>
<path d="M54.2683 329.862C54.2683 325.996 57.4023 322.862 61.2683 322.862H134.768C138.634 322.862 141.768 325.996 141.768 329.862V340.362C141.768 344.228 138.634 347.362 134.768 347.362H61.2683C57.4023 347.362 54.2683 344.228 54.2683 340.362V329.862Z" fill="#353535"/>
<path d="M68.7582 251.577H65.1673L59.1613 242.484V251.577H55.5703V236.835H59.1613L65.1673 245.97V236.835H68.7582V251.577Z" fill="white"/>
<path d="M82.4073 245.529C82.4073 245.865 82.3863 246.215 82.3443 246.579H74.2173C74.2733 247.307 74.5043 247.867 74.9103 248.259C75.3303 248.637 75.8413 248.826 76.4433 248.826C77.3393 248.826 77.9623 248.448 78.3123 247.692H82.1343C81.9383 248.462 81.5813 249.155 81.0633 249.771C80.5593 250.387 79.9223 250.87 79.1523 251.22C78.3823 251.57 77.5213 251.745 76.5693 251.745C75.4213 251.745 74.3993 251.5 73.5033 251.01C72.6073 250.52 71.9073 249.82 71.4033 248.91C70.8993 248 70.6473 246.936 70.6473 245.718C70.6473 244.5 70.8923 243.436 71.3823 242.526C71.8863 241.616 72.5863 240.916 73.4823 240.426C74.3783 239.936 75.4073 239.691 76.5693 239.691C77.7033 239.691 78.7113 239.929 79.5933 240.405C80.4753 240.881 81.1613 241.56 81.6513 242.442C82.1553 243.324 82.4073 244.353 82.4073 245.529ZM78.7323 244.584C78.7323 243.968 78.5223 243.478 78.1023 243.114C77.6823 242.75 77.1573 242.568 76.5273 242.568C75.9253 242.568 75.4143 242.743 74.9943 243.093C74.5883 243.443 74.3363 243.94 74.2383 244.584H78.7323Z" fill="white"/>
<path d="M101.123 239.859L97.9517 251.577H93.9827L92.1347 243.975L90.2237 251.577H86.2757L83.0837 239.859H86.6747L88.3337 248.238L90.3077 239.859H94.1087L96.1037 248.196L97.7417 239.859H101.123Z" fill="white"/>
<path d="M115.867 244.017C116.721 244.199 117.407 244.626 117.925 245.298C118.443 245.956 118.702 246.712 118.702 247.566C118.702 248.798 118.268 249.778 117.4 250.506C116.546 251.22 115.349 251.577 113.809 251.577H106.942V236.835H113.578C115.076 236.835 116.245 237.178 117.085 237.864C117.939 238.55 118.366 239.481 118.366 240.657C118.366 241.525 118.135 242.246 117.673 242.82C117.225 243.394 116.623 243.793 115.867 244.017ZM110.533 242.799H112.885C113.473 242.799 113.921 242.673 114.229 242.421C114.551 242.155 114.712 241.77 114.712 241.266C114.712 240.762 114.551 240.377 114.229 240.111C113.921 239.845 113.473 239.712 112.885 239.712H110.533V242.799ZM113.179 248.679C113.781 248.679 114.243 248.546 114.565 248.28C114.901 248 115.069 247.601 115.069 247.083C115.069 246.565 114.894 246.159 114.544 245.865C114.208 245.571 113.739 245.424 113.137 245.424H110.533V248.679H113.179Z" fill="white"/>
<path d="M126.119 251.745C124.971 251.745 123.935 251.5 123.011 251.01C122.101 250.52 121.38 249.82 120.848 248.91C120.33 248 120.071 246.936 120.071 245.718C120.071 244.514 120.337 243.457 120.869 242.547C121.401 241.623 122.129 240.916 123.053 240.426C123.977 239.936 125.013 239.691 126.161 239.691C127.309 239.691 128.345 239.936 129.269 240.426C130.193 240.916 130.921 241.623 131.453 242.547C131.985 243.457 132.251 244.514 132.251 245.718C132.251 246.922 131.978 247.986 131.432 248.91C130.9 249.82 130.165 250.52 129.227 251.01C128.303 251.5 127.267 251.745 126.119 251.745ZM126.119 248.637C126.805 248.637 127.386 248.385 127.862 247.881C128.352 247.377 128.597 246.656 128.597 245.718C128.597 244.78 128.359 244.059 127.883 243.555C127.421 243.051 126.847 242.799 126.161 242.799C125.461 242.799 124.88 243.051 124.418 243.555C123.956 244.045 123.725 244.766 123.725 245.718C123.725 246.656 123.949 247.377 124.397 247.881C124.859 248.385 125.433 248.637 126.119 248.637Z" fill="white"/>
<path d="M139.49 251.745C138.342 251.745 137.306 251.5 136.382 251.01C135.472 250.52 134.751 249.82 134.219 248.91C133.701 248 133.442 246.936 133.442 245.718C133.442 244.514 133.708 243.457 134.24 242.547C134.772 241.623 135.5 240.916 136.424 240.426C137.348 239.936 138.384 239.691 139.532 239.691C140.68 239.691 141.716 239.936 142.64 240.426C143.564 240.916 144.292 241.623 144.824 242.547C145.356 243.457 145.622 244.514 145.622 245.718C145.622 246.922 145.349 247.986 144.803 248.91C144.271 249.82 143.536 250.52 142.598 251.01C141.674 251.5 140.638 251.745 139.49 251.745ZM139.49 248.637C140.176 248.637 140.757 248.385 141.233 247.881C141.723 247.377 141.968 246.656 141.968 245.718C141.968 244.78 141.73 244.059 141.254 243.555C140.792 243.051 140.218 242.799 139.532 242.799C138.832 242.799 138.251 243.051 137.789 243.555C137.327 244.045 137.096 244.766 137.096 245.718C137.096 246.656 137.32 247.377 137.768 247.881C138.23 248.385 138.804 248.637 139.49 248.637Z" fill="white"/>
<path d="M152.294 251.745C151.272 251.745 150.362 251.57 149.564 251.22C148.766 250.87 148.136 250.394 147.674 249.792C147.212 249.176 146.953 248.49 146.897 247.734H150.446C150.488 248.14 150.677 248.469 151.013 248.721C151.349 248.973 151.762 249.099 152.252 249.099C152.7 249.099 153.043 249.015 153.281 248.847C153.533 248.665 153.659 248.434 153.659 248.154C153.659 247.818 153.484 247.573 153.134 247.419C152.784 247.251 152.217 247.069 151.433 246.873C150.593 246.677 149.893 246.474 149.333 246.264C148.773 246.04 148.29 245.697 147.884 245.235C147.478 244.759 147.275 244.122 147.275 243.324C147.275 242.652 147.457 242.043 147.821 241.497C148.199 240.937 148.745 240.496 149.459 240.174C150.187 239.852 151.048 239.691 152.042 239.691C153.512 239.691 154.667 240.055 155.507 240.783C156.361 241.511 156.851 242.477 156.977 243.681H153.659C153.603 243.275 153.421 242.953 153.113 242.715C152.819 242.477 152.427 242.358 151.937 242.358C151.517 242.358 151.195 242.442 150.971 242.61C150.747 242.764 150.635 242.981 150.635 243.261C150.635 243.597 150.81 243.849 151.16 244.017C151.524 244.185 152.084 244.353 152.84 244.521C153.708 244.745 154.415 244.969 154.961 245.193C155.507 245.403 155.983 245.753 156.389 246.243C156.809 246.719 157.026 247.363 157.04 248.175C157.04 248.861 156.844 249.477 156.452 250.023C156.074 250.555 155.521 250.975 154.793 251.283C154.079 251.591 153.246 251.745 152.294 251.745Z" fill="white"/>
<path d="M165.768 248.532V251.577H163.941C162.639 251.577 161.624 251.262 160.896 250.632C160.168 249.988 159.804 248.945 159.804 247.503V242.841H158.376V239.859H159.804V237.003H163.395V239.859H165.747V242.841H163.395V247.545C163.395 247.895 163.479 248.147 163.647 248.301C163.815 248.455 164.095 248.532 164.487 248.532H165.768Z" fill="white"/>
<path d="M178.814 245.529C178.814 245.865 178.793 246.215 178.751 246.579H170.624C170.68 247.307 170.911 247.867 171.317 248.259C171.737 248.637 172.248 248.826 172.85 248.826C173.746 248.826 174.369 248.448 174.719 247.692H178.541C178.345 248.462 177.988 249.155 177.47 249.771C176.966 250.387 176.329 250.87 175.559 251.22C174.789 251.57 173.928 251.745 172.976 251.745C171.828 251.745 170.806 251.5 169.91 251.01C169.014 250.52 168.314 249.82 167.81 248.91C167.306 248 167.054 246.936 167.054 245.718C167.054 244.5 167.299 243.436 167.789 242.526C168.293 241.616 168.993 240.916 169.889 240.426C170.785 239.936 171.814 239.691 172.976 239.691C174.11 239.691 175.118 239.929 176 240.405C176.882 240.881 177.568 241.56 178.058 242.442C178.562 243.324 178.814 244.353 178.814 245.529ZM175.139 244.584C175.139 243.968 174.929 243.478 174.509 243.114C174.089 242.75 173.564 242.568 172.934 242.568C172.332 242.568 171.821 242.743 171.401 243.093C170.995 243.443 170.743 243.94 170.645 244.584H175.139Z" fill="white"/>
<path d="M184.3 241.812C184.72 241.168 185.245 240.664 185.875 240.3C186.505 239.922 187.205 239.733 187.975 239.733V243.534H186.988C186.092 243.534 185.42 243.73 184.972 244.122C184.524 244.5 184.3 245.172 184.3 246.138V251.577H180.709V239.859H184.3V241.812Z" fill="white"/>
</svg>
