<svg width="2656" height="1080" viewBox="0 0 2656 1080" fill="none" xmlns="http://www.w3.org/2000/svg">
<circle cx="540" cy="540" r="270" fill="#F8F8F8"/>
<path fill-rule="evenodd" clip-rule="evenodd" d="M785.879 651.711C741.491 688.395 685.034 710.357 623.571 710.357C480.668 710.357 364.821 591.633 364.821 445.179C364.821 394.862 378.496 347.818 402.244 307.737C323.063 354.801 270 441.204 270 540C270 689.117 390.883 810 540 810C649.275 810 743.389 745.083 785.879 651.711Z" fill="#B2B2B2"/>
<circle cx="488.571" cy="662.143" r="36.1607" fill="#B2B2B2" stroke="#F8F8F8" stroke-width="8.03571"/>
<circle cx="386.747" cy="540" r="19.0848" fill="#B2B2B2" stroke="#F8F8F8" stroke-width="8.03571"/>
<circle cx="555.268" cy="310.982" r="15.2679" fill="#B2B2B2" stroke="#F8F8F8" stroke-width="6.42857"/>
<circle cx="589.018" cy="442.768" r="29.7321" fill="#B2B2B2" stroke="#F8F8F8" stroke-width="6.42857"/>
<circle cx="714.375" cy="535.982" r="60.2679" fill="#B2B2B2" stroke="#F8F8F8" stroke-width="6.42857"/>
<circle cx="559.286" cy="551.25" r="33.75" fill="#B2B2B2" stroke="#F8F8F8" stroke-width="6.42857"/>
<circle cx="446.786" cy="380.893" r="24.1071" fill="#B2B2B2" stroke="#F8F8F8" stroke-width="6.42857"/>
<circle cx="467.679" cy="478.929" r="12.8571" fill="#B2B2B2" stroke="#F8F8F8" stroke-width="6.42857"/>
<path d="M1240.35 383.626C1317.48 383.626 1367.15 425.892 1367.15 490.817C1367.15 555.307 1317.48 597.138 1240.35 597.138H1196.34V693H1105.71V383.626H1240.35ZM1196.34 525.241H1233.38C1257.78 525.241 1274.78 513.476 1274.78 490.817C1274.78 467.723 1258.22 455.523 1233.38 455.523H1196.34V525.241ZM1377.38 383.626H1467.14V488.639C1481.09 465.109 1504.18 456.83 1530.76 456.83C1578.26 456.83 1608.32 492.56 1608.32 544.413V693H1518.56V576.222C1518.56 543.977 1515.51 525.676 1494.16 525.676C1474.12 525.676 1467.14 543.977 1467.14 576.222V693H1377.38V383.626ZM1620.45 536.57C1629.17 483.41 1668.82 456.83 1738.97 456.83C1818.28 456.83 1856.19 490.817 1856.19 560.536V615.874C1856.19 635.918 1864.03 637.661 1871 637.661H1878.84V693L1870.57 693.871C1862.29 694.743 1796.93 709.122 1785.6 658.577C1772.96 684.285 1745.94 698.229 1699.32 698.229C1651.82 698.229 1616.97 672.52 1616.97 631.997C1616.97 593.216 1645.72 573.608 1704.99 561.407L1765.55 548.771C1765.12 519.576 1756.84 506.504 1738.54 506.504C1721.98 506.504 1712.39 516.962 1708.91 540.056L1620.45 536.57ZM1708.47 627.639C1708.47 639.404 1718.06 647.247 1733.31 647.247C1753.79 647.247 1766.42 630.254 1766.42 598.881V596.702L1741.59 601.495C1720.67 605.417 1708.47 611.517 1708.47 627.639ZM2025 540.056C2022.82 521.755 2010.18 510.861 1995.37 510.861C1980.12 510.861 1969.66 519.14 1970.97 531.777C1972.27 543.977 1983.6 549.642 2002.77 552.692C2084.26 564.021 2113.02 584.501 2113.02 626.332C2113.02 673.392 2072.06 698.229 2000.16 698.229C1921.73 698.229 1877.72 669.47 1873.8 619.36L1962.69 615.439C1966.17 633.304 1977.94 642.89 1997.11 642.89C2009.75 642.89 2022.38 636.79 2021.51 625.896C2021.08 612.824 2007.57 608.031 1988.4 604.981C1906.04 590.166 1879.03 570.993 1879.03 530.905C1879.03 483.41 1919.98 455.958 1997.11 455.958C2065.09 455.958 2105.61 485.589 2113.45 537.441L2025 540.056ZM2117.03 577.529C2117.03 504.761 2168.45 456.83 2246.01 456.83C2320.96 456.83 2373.24 509.99 2369.76 591.037L2369.32 599.316H2210.28C2210.71 623.282 2224.66 638.533 2246.01 638.533C2260.39 638.533 2273.46 629.818 2278.25 617.617L2366.71 623.718C2352.33 669.47 2306.14 698.229 2246.01 698.229C2168.45 698.229 2117.03 650.298 2117.03 577.529ZM2210.28 553.564H2280.87C2279.56 529.598 2265.18 516.526 2246.01 516.526C2225.53 516.526 2211.59 531.341 2210.28 553.564Z" fill="#F8F8F8"/>
</svg>
