<svg width="131" height="38" viewBox="0 0 131 38" fill="none" xmlns="http://www.w3.org/2000/svg">
<path d="M42.0115 30.7559C40.0701 30.7559 39.0995 30.5426 39.0995 30.1159V9.37992C39.0995 8.65459 39.4301 8.29192 40.0915 8.29192H45.7235C48.8808 8.29192 51.1528 8.94259 52.5395 10.2439C53.9475 11.5453 54.6515 13.4333 54.6515 15.9079C54.6515 17.9559 53.9901 19.8333 52.6675 21.5399C52.0061 22.3933 51.0355 23.0759 49.7555 23.5879C48.4755 24.0999 46.9821 24.3559 45.2755 24.3559V30.0839C45.2755 30.3399 44.8701 30.5213 44.0595 30.6279C43.2701 30.7133 42.5875 30.7559 42.0115 30.7559ZM45.2755 13.8599V18.9159H45.6915C46.4381 18.9159 47.0675 18.6813 47.5795 18.2119C48.0915 17.7426 48.3475 17.0813 48.3475 16.2279C48.3475 15.3746 48.1661 14.7666 47.8035 14.4039C47.4621 14.0413 46.8435 13.8599 45.9475 13.8599H45.2755ZM74.8855 30.1479C74.8855 30.5106 73.8081 30.6919 71.6535 30.6919C69.4988 30.6919 68.4215 30.5106 68.4215 30.1479V22.7879H63.9415V30.1479C63.9415 30.5106 62.8641 30.6919 60.7095 30.6919C58.5548 30.6919 57.4775 30.5106 57.4775 30.1479V8.93192C57.4775 8.48392 58.5548 8.25992 60.7095 8.25992C62.8641 8.25992 63.9415 8.48392 63.9415 8.93192V16.4519H68.4215V8.99592C68.4215 8.69726 68.9548 8.48392 70.0215 8.35592C70.5761 8.31326 71.1201 8.29192 71.6535 8.29192L73.2855 8.35592C74.3521 8.48392 74.8855 8.69726 74.8855 8.99592V30.1479ZM93.1112 30.7559C91.2552 30.7559 90.2526 30.4573 90.1032 29.8599L89.0472 25.7319H83.9592L83.0312 29.6999C82.9032 30.3613 81.8792 30.6919 79.9592 30.6919C78.9352 30.6919 78.1779 30.6386 77.6872 30.5319C77.1966 30.4039 76.9512 30.3079 76.9512 30.2439L82.6152 8.57992C82.6152 8.40926 84.0766 8.32392 86.9992 8.32392C89.9219 8.32392 91.3832 8.40926 91.3832 8.57992L96.9192 30.2759C96.9192 30.4253 96.4286 30.5426 95.4472 30.6279C94.4659 30.7133 93.6872 30.7559 93.1112 30.7559ZM84.7592 21.6679H88.1192L86.6792 15.0439H86.4872L84.7592 21.6679ZM99.872 22.8839C100.277 23.2039 100.971 23.6413 101.952 24.1959C102.955 24.7506 103.904 25.0279 104.8 25.0279C105.717 25.0279 106.176 24.6759 106.176 23.9719C106.176 23.6519 106.048 23.3746 105.792 23.1399C105.536 22.8839 105.067 22.5959 104.384 22.2759C103.701 21.9559 103.189 21.7106 102.848 21.5399C102.507 21.3479 102.048 21.0493 101.472 20.6439C100.917 20.2173 100.491 19.7799 100.192 19.3319C99.3386 18.1159 98.912 16.5693 98.912 14.6919C98.912 12.8146 99.6053 11.2359 100.992 9.95592C102.4 8.65459 104.235 8.00392 106.496 8.00392C108.032 8.00392 109.451 8.17459 110.752 8.51592C112.053 8.83592 112.725 9.26259 112.768 9.79592C112.768 9.85992 112.768 9.92392 112.768 9.98792C112.768 10.7346 112.533 11.6839 112.064 12.8359C111.595 13.9666 111.264 14.5959 111.072 14.7239C109.707 14.0199 108.48 13.6679 107.392 13.6679C106.325 13.6679 105.792 14.0519 105.792 14.8199C105.792 15.2893 106.187 15.7053 106.976 16.0679C107.147 16.1533 107.392 16.2706 107.712 16.4199C108.032 16.5693 108.395 16.7506 108.8 16.9639C109.227 17.1559 109.675 17.4119 110.144 17.7319C110.635 18.0306 111.157 18.4359 111.712 18.9479C112.843 20.0146 113.408 21.4226 113.408 23.1719C113.408 25.4546 112.779 27.3213 111.52 28.7719C110.261 30.2226 108.32 30.9693 105.696 31.0119C104.416 31.0119 103.253 30.9053 102.208 30.6919C101.184 30.4786 100.288 30.0626 99.52 29.4439C98.752 28.8253 98.368 28.0786 98.368 27.2039C98.368 26.3293 98.528 25.4653 98.848 24.6119C99.168 23.7373 99.5093 23.1613 99.872 22.8839ZM126.44 17.1879C126.845 17.1879 127.048 17.9346 127.048 19.4279C127.048 19.8759 126.995 20.4093 126.888 21.0279C126.803 21.6253 126.632 21.9239 126.376 21.9239H122.312V25.1239H128.2C128.563 25.1239 128.808 25.5933 128.936 26.5319C129 26.9373 129.032 27.3746 129.032 27.8439C129.032 28.2919 128.968 28.8786 128.84 29.6039C128.712 30.3293 128.499 30.6919 128.2 30.6919H117.256C116.445 30.6919 116.04 30.3613 116.04 29.6999V9.12392C116.04 8.56926 116.285 8.29192 116.776 8.29192H128.232C128.68 8.29192 128.904 9.24126 128.904 11.1399C128.904 13.0173 128.68 13.9559 128.232 13.9559H122.312V17.1879H126.44Z" fill="white"/>
<path d="M3.34153 34.0349L2.55403 34.6677C2.32903 34.8435 2.05482 34.9419 1.77357 34.9419C1.0845 34.9419 0.522003 34.3794 0.522003 33.6904V14.6919C0.522003 7.23878 6.56887 1.19189 14.022 1.19189C21.4751 1.19189 27.522 7.23878 27.522 14.6919V33.6904C27.522 34.3794 26.9595 34.9419 26.2704 34.9419C25.9892 34.9419 25.715 34.8435 25.49 34.6677L24.7025 34.0349C23.7603 33.2826 22.3962 33.4021 21.6017 34.3091L19.4572 36.7701C19.2251 37.0373 18.8806 37.1919 18.522 37.1919C18.1634 37.1919 17.8259 37.0373 17.5868 36.7701L15.7165 34.6255C14.8236 33.599 13.2275 33.599 12.3275 34.6255L10.4572 36.7701C10.2251 37.0373 9.88059 37.1919 9.52199 37.1919C9.1634 37.1919 8.8259 37.0373 8.58684 36.7701L6.44231 34.3091C5.64778 33.4021 4.28372 33.2826 3.34153 34.0349Z" fill="black"/>
<path d="M3.34153 34.0349L2.55403 34.6677C2.32903 34.8435 2.05482 34.9419 1.77357 34.9419C1.0845 34.9419 0.522003 34.3794 0.522003 33.6904V14.6919C0.522003 7.23878 6.56887 1.19189 14.022 1.19189C21.4751 1.19189 27.522 7.23878 27.522 14.6919V33.6904C27.522 34.3794 26.9595 34.9419 26.2704 34.9419C25.9892 34.9419 25.715 34.8435 25.49 34.6677L24.7025 34.0349C23.7603 33.2826 22.3962 33.4021 21.6017 34.3091L19.4572 36.7701C19.2251 37.0373 18.8806 37.1919 18.522 37.1919C18.1634 37.1919 17.8259 37.0373 17.5868 36.7701L15.7165 34.6255C14.8236 33.599 13.2275 33.599 12.3275 34.6255L10.4572 36.7701C10.2251 37.0373 9.88059 37.1919 9.52199 37.1919C9.1634 37.1919 8.8259 37.0373 8.58684 36.7701L6.44231 34.3091C5.64778 33.4021 4.28372 33.2826 3.34153 34.0349Z" fill="url(#paint0_linear_11_279)"/>
<path d="M12.447 14.4171C12.447 16.0325 11.1374 17.342 9.52199 17.342C7.90656 17.342 6.597 16.0325 6.597 14.4171C6.597 12.8018 7.90656 11.4923 9.52199 11.4923C11.1374 11.4923 12.447 12.8018 12.447 14.4171Z" fill="black"/>
<path d="M21.447 14.4171C21.447 16.0325 20.1374 17.342 18.522 17.342C16.9066 17.342 15.597 16.0325 15.597 14.4171C15.597 12.8018 16.9066 11.4923 18.522 11.4923C20.1374 11.4923 21.447 12.8018 21.447 14.4171Z" fill="black"/>
<defs>
<linearGradient id="paint0_linear_11_279" x1="0.522022" y1="19.1919" x2="12.3989" y2="5.78987" gradientUnits="userSpaceOnUse">
<stop stop-color="#8000FF"/>
<stop offset="1" stop-color="#DB00FF"/>
</linearGradient>
</defs>
</svg>