<svg width="1156" height="1156" viewBox="0 0 1156 1156" fill="none" xmlns="http://www.w3.org/2000/svg">
<circle cx="580" cy="578" r="513" stroke="#282828" stroke-width="1"/>
<circle cx="137.781" cy="837.781" r="3.5" transform="rotate(-60 137.781 837.781)" fill="#C0C0C0"/>
<circle cx="457" cy="80" r="5" fill="#C0C0C0"/>
<circle cx="859" cy="147" r="5" fill="#C0C0C0"/>
<circle cx="1075" cy="443" r="5" fill="#F8F8F8"/>
<circle cx="1005" cy="864" r="5" fill="#C0C0C0"/>
<circle cx="820" cy="1031" r="5" fill="#C0C0C0"/>
<circle cx="305" cy="1011" r="5" fill="#F8F8F8"/>
<circle cx="67" cy="551" r="5" fill="#C0C0C0"/>
<circle cx="168.781" cy="270.781" r="3.5" transform="rotate(-60 168.781 270.781)" fill="#F8F8F8"/>
<circle cx="578.699" cy="576.788" r="358.8" transform="rotate(-60 578.699 576.788)" stroke="#282828" stroke-width="1"/>
<circle cx="231.592" cy="669.795" r="3.5" transform="rotate(-60 231.592 669.795)" fill="#F8F8F8"/>
<circle cx="670.11" cy="229.46" r="3.5" transform="rotate(-60 670.11 229.46)" fill="#F8F8F8"/>
<circle cx="411.83" cy="259.232" r="5" transform="rotate(-60 411.83 259.232)" fill="#C0C0C0"/>
<circle cx="900.828" cy="419.245" r="3.5" transform="rotate(-60 900.828 419.245)" fill="#C0C0C0"/>
<circle cx="936.83" cy="589.83" r="5" transform="rotate(-60 936.83 589.83)" fill="#C0C0C0"/>
<circle cx="559.998" cy="935.379" r="3.5" transform="rotate(-60 559.998 935.379)" fill="#C0C0C0"/>
</svg>
