<svg width="1009" height="393" viewBox="0 0 1009 393" fill="none" xmlns="http://www.w3.org/2000/svg">
<rect x="0.490173" y="0.919159" width="1008" height="392" fill="#262626"/>
<g filter="url(#filter0_d_208_5)">
<rect x="737.695" y="257.958" width="194.31" height="64.76" rx="7" fill="#171717"/>
<path d="M737.695 264.958C737.695 261.092 740.829 257.958 744.695 257.958H746.436V322.718H744.695C740.829 322.718 737.695 319.584 737.695 315.718V264.958Z" fill="#EE82EE"/>
<path d="M776.647 283.67C778.299 283.67 779.741 283.985 780.973 284.615C782.205 285.231 783.15 286.106 783.808 287.24C784.48 288.36 784.816 289.655 784.816 291.125C784.816 292.315 784.606 293.421 784.186 294.443C783.78 295.465 783.171 296.284 782.359 296.9C781.561 297.502 780.609 297.803 779.503 297.803C778.761 297.803 778.145 297.656 777.655 297.362C777.179 297.068 776.857 296.655 776.689 296.123C776.297 296.669 775.793 297.096 775.177 297.404C774.561 297.698 773.889 297.845 773.161 297.845C772.125 297.845 771.306 297.537 770.704 296.921C770.116 296.291 769.822 295.437 769.822 294.359C769.822 293.337 770.032 292.378 770.452 291.482C770.872 290.572 771.453 289.844 772.195 289.298C772.937 288.752 773.77 288.479 774.694 288.479C775.87 288.479 776.668 288.899 777.088 289.739L777.277 288.626H780.175L779.251 293.897C779.209 294.149 779.188 294.373 779.188 294.569C779.188 295.185 779.461 295.493 780.007 295.493C780.679 295.493 781.19 295.066 781.54 294.212C781.904 293.344 782.086 292.35 782.086 291.23C782.086 289.62 781.575 288.36 780.553 287.45C779.545 286.54 778.124 286.085 776.29 286.085C774.722 286.085 773.294 286.463 772.006 287.219C770.732 287.975 769.731 289.011 769.003 290.327C768.275 291.629 767.911 293.064 767.911 294.632C767.911 296.326 768.401 297.642 769.381 298.58C770.375 299.518 771.761 299.987 773.539 299.987C774.925 299.987 776.164 299.735 777.256 299.231L777.823 301.52C776.451 302.122 774.911 302.423 773.203 302.423C771.607 302.423 770.2 302.115 768.982 301.499C767.778 300.883 766.847 300.008 766.189 298.874C765.531 297.74 765.202 296.417 765.202 294.905C765.202 292.791 765.699 290.88 766.693 289.172C767.687 287.45 769.052 286.106 770.788 285.14C772.538 284.16 774.491 283.67 776.647 283.67ZM774.337 295.262C774.729 295.262 775.093 295.143 775.429 294.905C775.779 294.667 776.052 294.352 776.248 293.96C776.458 293.554 776.563 293.12 776.563 292.658C776.563 292.182 776.43 291.797 776.164 291.503C775.898 291.195 775.534 291.041 775.072 291.041C774.456 291.041 773.945 291.307 773.539 291.839C773.133 292.371 772.93 293.001 772.93 293.729C772.93 294.191 773.049 294.562 773.287 294.842C773.525 295.122 773.875 295.262 774.337 295.262ZM800.841 297.698H797.25L791.244 288.605V297.698H787.653V282.956H791.244L797.25 292.091V282.956H800.841V297.698ZM814.49 291.65C814.49 291.986 814.469 292.336 814.427 292.7H806.3C806.356 293.428 806.587 293.988 806.993 294.38C807.413 294.758 807.924 294.947 808.526 294.947C809.422 294.947 810.045 294.569 810.395 293.813H814.217C814.021 294.583 813.664 295.276 813.146 295.892C812.642 296.508 812.005 296.991 811.235 297.341C810.465 297.691 809.604 297.866 808.652 297.866C807.504 297.866 806.482 297.621 805.586 297.131C804.69 296.641 803.99 295.941 803.486 295.031C802.982 294.121 802.73 293.057 802.73 291.839C802.73 290.621 802.975 289.557 803.465 288.647C803.969 287.737 804.669 287.037 805.565 286.547C806.461 286.057 807.49 285.812 808.652 285.812C809.786 285.812 810.794 286.05 811.676 286.526C812.558 287.002 813.244 287.681 813.734 288.563C814.238 289.445 814.49 290.474 814.49 291.65ZM810.815 290.705C810.815 290.089 810.605 289.599 810.185 289.235C809.765 288.871 809.24 288.689 808.61 288.689C808.008 288.689 807.497 288.864 807.077 289.214C806.671 289.564 806.419 290.061 806.321 290.705H810.815ZM833.205 285.98L830.034 297.698H826.065L824.217 290.096L822.306 297.698H818.358L815.166 285.98H818.757L820.416 294.359L822.39 285.98H826.191L828.186 294.317L829.824 285.98H833.205ZM833.861 291.839C833.861 290.621 834.106 289.557 834.596 288.647C835.1 287.737 835.793 287.037 836.675 286.547C837.571 286.057 838.593 285.812 839.741 285.812C841.211 285.812 842.436 286.197 843.416 286.967C844.41 287.737 845.061 288.822 845.369 290.222H841.547C841.225 289.326 840.602 288.878 839.678 288.878C839.02 288.878 838.495 289.137 838.103 289.655C837.711 290.159 837.515 290.887 837.515 291.839C837.515 292.791 837.711 293.526 838.103 294.044C838.495 294.548 839.02 294.8 839.678 294.8C840.602 294.8 841.225 294.352 841.547 293.456H845.369C845.061 294.828 844.41 295.906 843.416 296.69C842.422 297.474 841.197 297.866 839.741 297.866C838.593 297.866 837.571 297.621 836.675 297.131C835.793 296.641 835.1 295.941 834.596 295.031C834.106 294.121 833.861 293.057 833.861 291.839ZM852.624 297.866C851.476 297.866 850.44 297.621 849.516 297.131C848.606 296.641 847.885 295.941 847.353 295.031C846.835 294.121 846.576 293.057 846.576 291.839C846.576 290.635 846.842 289.578 847.374 288.668C847.906 287.744 848.634 287.037 849.558 286.547C850.482 286.057 851.518 285.812 852.666 285.812C853.814 285.812 854.85 286.057 855.774 286.547C856.698 287.037 857.426 287.744 857.958 288.668C858.49 289.578 858.756 290.635 858.756 291.839C858.756 293.043 858.483 294.107 857.937 295.031C857.405 295.941 856.67 296.641 855.732 297.131C854.808 297.621 853.772 297.866 852.624 297.866ZM852.624 294.758C853.31 294.758 853.891 294.506 854.367 294.002C854.857 293.498 855.102 292.777 855.102 291.839C855.102 290.901 854.864 290.18 854.388 289.676C853.926 289.172 853.352 288.92 852.666 288.92C851.966 288.92 851.385 289.172 850.923 289.676C850.461 290.166 850.23 290.887 850.23 291.839C850.23 292.777 850.454 293.498 850.902 294.002C851.364 294.506 851.938 294.758 852.624 294.758ZM875.613 285.854C877.069 285.854 878.224 286.295 879.078 287.177C879.946 288.059 880.38 289.284 880.38 290.852V297.698H876.81V291.335C876.81 290.579 876.607 289.998 876.201 289.592C875.809 289.172 875.263 288.962 874.563 288.962C873.863 288.962 873.31 289.172 872.904 289.592C872.512 289.998 872.316 290.579 872.316 291.335V297.698H868.746V291.335C868.746 290.579 868.543 289.998 868.137 289.592C867.745 289.172 867.199 288.962 866.499 288.962C865.799 288.962 865.246 289.172 864.84 289.592C864.448 289.998 864.252 290.579 864.252 291.335V297.698H860.661V285.98H864.252V287.45C864.616 286.96 865.092 286.575 865.68 286.295C866.268 286.001 866.933 285.854 867.675 285.854C868.557 285.854 869.341 286.043 870.027 286.421C870.727 286.799 871.273 287.338 871.665 288.038C872.071 287.394 872.624 286.869 873.324 286.463C874.024 286.057 874.787 285.854 875.613 285.854ZM893.937 291.65C893.937 291.986 893.916 292.336 893.874 292.7H885.747C885.803 293.428 886.034 293.988 886.44 294.38C886.86 294.758 887.371 294.947 887.973 294.947C888.869 294.947 889.492 294.569 889.842 293.813H893.664C893.468 294.583 893.111 295.276 892.593 295.892C892.089 296.508 891.452 296.991 890.682 297.341C889.912 297.691 889.051 297.866 888.099 297.866C886.951 297.866 885.929 297.621 885.033 297.131C884.137 296.641 883.437 295.941 882.933 295.031C882.429 294.121 882.177 293.057 882.177 291.839C882.177 290.621 882.422 289.557 882.912 288.647C883.416 287.737 884.116 287.037 885.012 286.547C885.908 286.057 886.937 285.812 888.099 285.812C889.233 285.812 890.241 286.05 891.123 286.526C892.005 287.002 892.691 287.681 893.181 288.563C893.685 289.445 893.937 290.474 893.937 291.65ZM890.262 290.705C890.262 290.089 890.052 289.599 889.632 289.235C889.212 288.871 888.687 288.689 888.057 288.689C887.455 288.689 886.944 288.864 886.524 289.214C886.118 289.564 885.866 290.061 885.768 290.705H890.262ZM899.423 287.933C899.843 287.289 900.368 286.785 900.998 286.421C901.628 286.043 902.328 285.854 903.098 285.854V289.655H902.111C901.215 289.655 900.543 289.851 900.095 290.243C899.647 290.621 899.423 291.293 899.423 292.259V297.698H895.832V285.98H899.423V287.933Z" fill="#EE82EE"/>
<path d="M737.695 291.797H627.695M627.695 230.258H538.975M625.22 294.299V229.299" stroke="#EE82EE" stroke-width="5"/>
</g>
<g filter="url(#filter1_d_208_5)">
<rect x="733.325" y="164.539" width="194.31" height="64.76" rx="7" fill="#171717"/>
<path d="M733.325 171.539C733.325 167.673 736.459 164.539 740.325 164.539H742.066V229.299H740.325C736.459 229.299 733.325 226.165 733.325 222.299V171.539Z" fill="#57F287"/>
<path d="M772.277 190.251C773.929 190.251 775.371 190.566 776.603 191.196C777.835 191.812 778.78 192.687 779.438 193.821C780.11 194.941 780.446 196.236 780.446 197.706C780.446 198.896 780.236 200.002 779.816 201.024C779.41 202.046 778.801 202.865 777.989 203.481C777.191 204.083 776.239 204.384 775.133 204.384C774.391 204.384 773.775 204.237 773.285 203.943C772.809 203.649 772.487 203.236 772.319 202.704C771.927 203.25 771.423 203.677 770.807 203.985C770.191 204.279 769.519 204.426 768.791 204.426C767.755 204.426 766.936 204.118 766.334 203.502C765.746 202.872 765.452 202.018 765.452 200.94C765.452 199.918 765.662 198.959 766.082 198.063C766.502 197.153 767.083 196.425 767.825 195.879C768.567 195.333 769.4 195.06 770.324 195.06C771.5 195.06 772.298 195.48 772.718 196.32L772.907 195.207H775.805L774.881 200.478C774.839 200.73 774.818 200.954 774.818 201.15C774.818 201.766 775.091 202.074 775.637 202.074C776.309 202.074 776.82 201.647 777.17 200.793C777.534 199.925 777.716 198.931 777.716 197.811C777.716 196.201 777.205 194.941 776.183 194.031C775.175 193.121 773.754 192.666 771.92 192.666C770.352 192.666 768.924 193.044 767.636 193.8C766.362 194.556 765.361 195.592 764.633 196.908C763.905 198.21 763.541 199.645 763.541 201.213C763.541 202.907 764.031 204.223 765.011 205.161C766.005 206.099 767.391 206.568 769.169 206.568C770.555 206.568 771.794 206.316 772.886 205.812L773.453 208.101C772.081 208.703 770.541 209.004 768.833 209.004C767.237 209.004 765.83 208.696 764.612 208.08C763.408 207.464 762.477 206.589 761.819 205.455C761.161 204.321 760.832 202.998 760.832 201.486C760.832 199.372 761.329 197.461 762.323 195.753C763.317 194.031 764.682 192.687 766.418 191.721C768.168 190.741 770.121 190.251 772.277 190.251ZM769.967 201.843C770.359 201.843 770.723 201.724 771.059 201.486C771.409 201.248 771.682 200.933 771.878 200.541C772.088 200.135 772.193 199.701 772.193 199.239C772.193 198.763 772.06 198.378 771.794 198.084C771.528 197.776 771.164 197.622 770.702 197.622C770.086 197.622 769.575 197.888 769.169 198.42C768.763 198.952 768.56 199.582 768.56 200.31C768.56 200.772 768.679 201.143 768.917 201.423C769.155 201.703 769.505 201.843 769.967 201.843ZM797.122 189.537L791.893 204.279H787.399L782.17 189.537H785.992L789.646 200.667L793.321 189.537H797.122ZM809.669 198.231C809.669 198.567 809.648 198.917 809.606 199.281H801.479C801.535 200.009 801.766 200.569 802.172 200.961C802.592 201.339 803.103 201.528 803.705 201.528C804.601 201.528 805.224 201.15 805.574 200.394H809.396C809.2 201.164 808.843 201.857 808.325 202.473C807.821 203.089 807.184 203.572 806.414 203.922C805.644 204.272 804.783 204.447 803.831 204.447C802.683 204.447 801.661 204.202 800.765 203.712C799.869 203.222 799.169 202.522 798.665 201.612C798.161 200.702 797.909 199.638 797.909 198.42C797.909 197.202 798.154 196.138 798.644 195.228C799.148 194.318 799.848 193.618 800.744 193.128C801.64 192.638 802.669 192.393 803.831 192.393C804.965 192.393 805.973 192.631 806.855 193.107C807.737 193.583 808.423 194.262 808.913 195.144C809.417 196.026 809.669 197.055 809.669 198.231ZM805.994 197.286C805.994 196.67 805.784 196.18 805.364 195.816C804.944 195.452 804.419 195.27 803.789 195.27C803.187 195.27 802.676 195.445 802.256 195.795C801.85 196.145 801.598 196.642 801.5 197.286H805.994ZM815.154 194.514C815.574 193.87 816.099 193.366 816.729 193.002C817.359 192.624 818.059 192.435 818.829 192.435V196.236H817.842C816.946 196.236 816.274 196.432 815.826 196.824C815.378 197.202 815.154 197.874 815.154 198.84V204.279H811.563V192.561H815.154V194.514ZM822.351 191.343C821.721 191.343 821.203 191.161 820.797 190.797C820.405 190.419 820.209 189.957 820.209 189.411C820.209 188.851 820.405 188.389 820.797 188.025C821.203 187.647 821.721 187.458 822.351 187.458C822.967 187.458 823.471 187.647 823.863 188.025C824.269 188.389 824.472 188.851 824.472 189.411C824.472 189.957 824.269 190.419 823.863 190.797C823.471 191.161 822.967 191.343 822.351 191.343ZM824.136 192.561V204.279H820.545V192.561H824.136ZM832.619 195.543H830.687V204.279H827.096V195.543H825.794V192.561H827.096V192.225C827.096 190.783 827.509 189.691 828.335 188.949C829.161 188.193 830.372 187.815 831.968 187.815C832.234 187.815 832.43 187.822 832.556 187.836V190.881C831.87 190.839 831.387 190.937 831.107 191.175C830.827 191.413 830.687 191.84 830.687 192.456V192.561H832.619V195.543ZM836.112 191.343C835.482 191.343 834.964 191.161 834.558 190.797C834.166 190.419 833.97 189.957 833.97 189.411C833.97 188.851 834.166 188.389 834.558 188.025C834.964 187.647 835.482 187.458 836.112 187.458C836.728 187.458 837.232 187.647 837.624 188.025C838.03 188.389 838.233 188.851 838.233 189.411C838.233 189.957 838.03 190.419 837.624 190.797C837.232 191.161 836.728 191.343 836.112 191.343ZM837.897 192.561V204.279H834.306V192.561H837.897ZM851.546 198.231C851.546 198.567 851.525 198.917 851.483 199.281H843.356C843.412 200.009 843.643 200.569 844.049 200.961C844.469 201.339 844.98 201.528 845.582 201.528C846.478 201.528 847.101 201.15 847.451 200.394H851.273C851.077 201.164 850.72 201.857 850.202 202.473C849.698 203.089 849.061 203.572 848.291 203.922C847.521 204.272 846.66 204.447 845.708 204.447C844.56 204.447 843.538 204.202 842.642 203.712C841.746 203.222 841.046 202.522 840.542 201.612C840.038 200.702 839.786 199.638 839.786 198.42C839.786 197.202 840.031 196.138 840.521 195.228C841.025 194.318 841.725 193.618 842.621 193.128C843.517 192.638 844.546 192.393 845.708 192.393C846.842 192.393 847.85 192.631 848.732 193.107C849.614 193.583 850.3 194.262 850.79 195.144C851.294 196.026 851.546 197.055 851.546 198.231ZM847.871 197.286C847.871 196.67 847.661 196.18 847.241 195.816C846.821 195.452 846.296 195.27 845.666 195.27C845.064 195.27 844.553 195.445 844.133 195.795C843.727 196.145 843.475 196.642 843.377 197.286H847.871ZM852.726 198.399C852.726 197.195 852.95 196.138 853.398 195.228C853.86 194.318 854.483 193.618 855.267 193.128C856.051 192.638 856.926 192.393 857.892 192.393C858.662 192.393 859.362 192.554 859.992 192.876C860.636 193.198 861.14 193.632 861.504 194.178V188.739H865.095V204.279H861.504V202.599C861.168 203.159 860.685 203.607 860.055 203.943C859.439 204.279 858.718 204.447 857.892 204.447C856.926 204.447 856.051 204.202 855.267 203.712C854.483 203.208 853.86 202.501 853.398 201.591C852.95 200.667 852.726 199.603 852.726 198.399ZM861.504 198.42C861.504 197.524 861.252 196.817 860.748 196.299C860.258 195.781 859.656 195.522 858.942 195.522C858.228 195.522 857.619 195.781 857.115 196.299C856.625 196.803 856.38 197.503 856.38 198.399C856.38 199.295 856.625 200.009 857.115 200.541C857.619 201.059 858.228 201.318 858.942 201.318C859.656 201.318 860.258 201.059 860.748 200.541C861.252 200.023 861.504 199.316 861.504 198.42Z" fill="#57F287"/>
<path d="M538.975 196.919H733.325" stroke="#57F287" stroke-width="5"/>
</g>
<g filter="url(#filter2_d_208_5)">
<rect x="733.325" y="71.1201" width="194.31" height="64.76" rx="7" fill="#171717"/>
<path d="M733.325 78.1201C733.325 74.2541 736.459 71.1201 740.325 71.1201H742.066V135.88H740.325C736.459 135.88 733.325 132.746 733.325 128.88V78.1201Z" fill="#00FFFF"/>
<path d="M772.277 96.8316C773.929 96.8316 775.371 97.1466 776.603 97.7766C777.835 98.3926 778.78 99.2676 779.438 100.402C780.11 101.522 780.446 102.817 780.446 104.287C780.446 105.477 780.236 106.583 779.816 107.605C779.41 108.627 778.801 109.446 777.989 110.062C777.191 110.664 776.239 110.965 775.133 110.965C774.391 110.965 773.775 110.818 773.285 110.524C772.809 110.23 772.487 109.817 772.319 109.285C771.927 109.831 771.423 110.258 770.807 110.566C770.191 110.86 769.519 111.007 768.791 111.007C767.755 111.007 766.936 110.699 766.334 110.083C765.746 109.453 765.452 108.599 765.452 107.521C765.452 106.499 765.662 105.54 766.082 104.644C766.502 103.734 767.083 103.006 767.825 102.46C768.567 101.914 769.4 101.641 770.324 101.641C771.5 101.641 772.298 102.061 772.718 102.901L772.907 101.788H775.805L774.881 107.059C774.839 107.311 774.818 107.535 774.818 107.731C774.818 108.347 775.091 108.655 775.637 108.655C776.309 108.655 776.82 108.228 777.17 107.374C777.534 106.506 777.716 105.512 777.716 104.392C777.716 102.782 777.205 101.522 776.183 100.612C775.175 99.7016 773.754 99.2466 771.92 99.2466C770.352 99.2466 768.924 99.6246 767.636 100.381C766.362 101.137 765.361 102.173 764.633 103.489C763.905 104.791 763.541 106.226 763.541 107.794C763.541 109.488 764.031 110.804 765.011 111.742C766.005 112.68 767.391 113.149 769.169 113.149C770.555 113.149 771.794 112.897 772.886 112.393L773.453 114.682C772.081 115.284 770.541 115.585 768.833 115.585C767.237 115.585 765.83 115.277 764.612 114.661C763.408 114.045 762.477 113.17 761.819 112.036C761.161 110.902 760.832 109.579 760.832 108.067C760.832 105.953 761.329 104.042 762.323 102.334C763.317 100.612 764.682 99.2676 766.418 98.3016C768.168 97.3216 770.121 96.8316 772.277 96.8316ZM769.967 108.424C770.359 108.424 770.723 108.305 771.059 108.067C771.409 107.829 771.682 107.514 771.878 107.122C772.088 106.716 772.193 106.282 772.193 105.82C772.193 105.344 772.06 104.959 771.794 104.665C771.528 104.357 771.164 104.203 770.702 104.203C770.086 104.203 769.575 104.469 769.169 105.001C768.763 105.533 768.56 106.163 768.56 106.891C768.56 107.353 768.679 107.724 768.917 108.004C769.155 108.284 769.505 108.424 769.967 108.424ZM799.978 96.1176V110.86H796.387V102.019L793.09 110.86H790.192L786.874 101.998V110.86H783.283V96.1176H787.525L791.662 106.324L795.757 96.1176H799.978ZM813.606 104.812C813.606 105.148 813.585 105.498 813.543 105.862H805.416C805.472 106.59 805.703 107.15 806.109 107.542C806.529 107.92 807.04 108.109 807.642 108.109C808.538 108.109 809.161 107.731 809.511 106.975H813.333C813.137 107.745 812.78 108.438 812.262 109.054C811.758 109.67 811.121 110.153 810.351 110.503C809.581 110.853 808.72 111.028 807.768 111.028C806.62 111.028 805.598 110.783 804.702 110.293C803.806 109.803 803.106 109.103 802.602 108.193C802.098 107.283 801.846 106.219 801.846 105.001C801.846 103.783 802.091 102.719 802.581 101.809C803.085 100.899 803.785 100.199 804.681 99.7086C805.577 99.2186 806.606 98.9736 807.768 98.9736C808.902 98.9736 809.91 99.2116 810.792 99.6876C811.674 100.164 812.36 100.843 812.85 101.725C813.354 102.607 813.606 103.636 813.606 104.812ZM809.931 103.867C809.931 103.251 809.721 102.761 809.301 102.397C808.881 102.033 808.356 101.851 807.726 101.851C807.124 101.851 806.613 102.026 806.193 102.376C805.787 102.726 805.535 103.223 805.437 103.867H809.931ZM830.453 99.0156C831.909 99.0156 833.064 99.4566 833.918 100.339C834.786 101.221 835.22 102.446 835.22 104.014V110.86H831.65V104.497C831.65 103.741 831.447 103.16 831.041 102.754C830.649 102.334 830.103 102.124 829.403 102.124C828.703 102.124 828.15 102.334 827.744 102.754C827.352 103.16 827.156 103.741 827.156 104.497V110.86H823.586V104.497C823.586 103.741 823.383 103.16 822.977 102.754C822.585 102.334 822.039 102.124 821.339 102.124C820.639 102.124 820.086 102.334 819.68 102.754C819.288 103.16 819.092 103.741 819.092 104.497V110.86H815.501V99.1416H819.092V100.612C819.456 100.122 819.932 99.7366 820.52 99.4566C821.108 99.1626 821.773 99.0156 822.515 99.0156C823.397 99.0156 824.181 99.2046 824.867 99.5826C825.567 99.9606 826.113 100.5 826.505 101.2C826.911 100.556 827.464 100.031 828.164 99.6246C828.864 99.2186 829.627 99.0156 830.453 99.0156ZM841.322 100.801C841.658 100.255 842.141 99.8136 842.771 99.4776C843.401 99.1416 844.122 98.9736 844.934 98.9736C845.9 98.9736 846.775 99.2186 847.559 99.7086C848.343 100.199 848.959 100.899 849.407 101.809C849.869 102.719 850.1 103.776 850.1 104.98C850.1 106.184 849.869 107.248 849.407 108.172C848.959 109.082 848.343 109.789 847.559 110.293C846.775 110.783 845.9 111.028 844.934 111.028C844.108 111.028 843.387 110.867 842.771 110.545C842.155 110.209 841.672 109.768 841.322 109.222V110.86H837.731V95.3196H841.322V100.801ZM846.446 104.98C846.446 104.084 846.194 103.384 845.69 102.88C845.2 102.362 844.591 102.103 843.863 102.103C843.149 102.103 842.54 102.362 842.036 102.88C841.546 103.398 841.301 104.105 841.301 105.001C841.301 105.897 841.546 106.604 842.036 107.122C842.54 107.64 843.149 107.899 843.863 107.899C844.577 107.899 845.186 107.64 845.69 107.122C846.194 106.59 846.446 105.876 846.446 104.98ZM863.03 104.812C863.03 105.148 863.009 105.498 862.967 105.862H854.84C854.896 106.59 855.127 107.15 855.533 107.542C855.953 107.92 856.464 108.109 857.066 108.109C857.962 108.109 858.585 107.731 858.935 106.975H862.757C862.561 107.745 862.204 108.438 861.686 109.054C861.182 109.67 860.545 110.153 859.775 110.503C859.005 110.853 858.144 111.028 857.192 111.028C856.044 111.028 855.022 110.783 854.126 110.293C853.23 109.803 852.53 109.103 852.026 108.193C851.522 107.283 851.27 106.219 851.27 105.001C851.27 103.783 851.515 102.719 852.005 101.809C852.509 100.899 853.209 100.199 854.105 99.7086C855.001 99.2186 856.03 98.9736 857.192 98.9736C858.326 98.9736 859.334 99.2116 860.216 99.6876C861.098 100.164 861.784 100.843 862.274 101.725C862.778 102.607 863.03 103.636 863.03 104.812ZM859.355 103.867C859.355 103.251 859.145 102.761 858.725 102.397C858.305 102.033 857.78 101.851 857.15 101.851C856.548 101.851 856.037 102.026 855.617 102.376C855.211 102.726 854.959 103.223 854.861 103.867H859.355ZM868.515 101.095C868.935 100.451 869.46 99.9466 870.09 99.5826C870.72 99.2046 871.42 99.0156 872.19 99.0156V102.817H871.203C870.307 102.817 869.635 103.013 869.187 103.405C868.739 103.783 868.515 104.455 868.515 105.421V110.86H864.924V99.1416H868.515V101.095Z" fill="#00FFFF"/>
<path d="M733.325 102.041H623.325M623.325 163.58H534.605M620.85 99.5392V164.539" stroke="#00FFFF" stroke-width="5"/>
</g>
<rect x="76.9753" y="120.191" width="462" height="154.37" rx="7" fill="#171717"/>
<path d="M76.9753 127.191C76.9753 123.325 80.1093 120.191 83.9753 120.191H85.7158V274.561H83.9753C80.1093 274.561 76.9753 271.427 76.9753 267.561V127.191Z" fill="#57F287"/>
<path d="M102.949 193.158C102.949 189.292 106.083 186.158 109.949 186.158H445.949C449.815 186.158 452.949 189.292 452.949 193.158V210.658C452.949 214.524 449.815 217.658 445.949 217.658H109.949C106.083 217.658 102.949 214.524 102.949 210.658V193.158Z" fill="#262626"/>
<path d="M102.949 240.795C102.949 236.929 106.083 233.795 109.949 233.795H183.449C187.315 233.795 190.449 236.929 190.449 240.795V251.295C190.449 255.161 187.315 258.295 183.449 258.295H109.949C106.083 258.295 102.949 255.161 102.949 251.295V240.795Z" fill="#353535"/>
<path d="M117.439 159.931H113.848L107.842 150.838V159.931H104.251V145.189H107.842L113.848 154.324V145.189H117.439V159.931ZM131.088 153.883C131.088 154.219 131.067 154.569 131.025 154.933H122.898C122.954 155.661 123.185 156.221 123.591 156.613C124.011 156.991 124.522 157.18 125.124 157.18C126.02 157.18 126.643 156.802 126.993 156.046H130.815C130.619 156.816 130.262 157.509 129.744 158.125C129.24 158.741 128.603 159.224 127.833 159.574C127.063 159.924 126.202 160.099 125.25 160.099C124.102 160.099 123.08 159.854 122.184 159.364C121.288 158.874 120.588 158.174 120.084 157.264C119.58 156.354 119.328 155.29 119.328 154.072C119.328 152.854 119.573 151.79 120.063 150.88C120.567 149.97 121.267 149.27 122.163 148.78C123.059 148.29 124.088 148.045 125.25 148.045C126.384 148.045 127.392 148.283 128.274 148.759C129.156 149.235 129.842 149.914 130.332 150.796C130.836 151.678 131.088 152.707 131.088 153.883ZM127.413 152.938C127.413 152.322 127.203 151.832 126.783 151.468C126.363 151.104 125.838 150.922 125.208 150.922C124.606 150.922 124.095 151.097 123.675 151.447C123.269 151.797 123.017 152.294 122.919 152.938H127.413ZM149.804 148.213L146.633 159.931H142.664L140.816 152.329L138.905 159.931H134.957L131.765 148.213H135.356L137.015 156.592L138.989 148.213H142.79L144.785 156.55L146.423 148.213H149.804ZM172.318 145.189V159.931H168.727V151.09L165.43 159.931H162.532L159.214 151.069V159.931H155.623V145.189H159.865L164.002 155.395L168.097 145.189H172.318ZM185.947 153.883C185.947 154.219 185.926 154.569 185.884 154.933H177.757C177.813 155.661 178.044 156.221 178.45 156.613C178.87 156.991 179.381 157.18 179.983 157.18C180.879 157.18 181.502 156.802 181.852 156.046H185.674C185.478 156.816 185.121 157.509 184.603 158.125C184.099 158.741 183.462 159.224 182.692 159.574C181.922 159.924 181.061 160.099 180.109 160.099C178.961 160.099 177.939 159.854 177.043 159.364C176.147 158.874 175.447 158.174 174.943 157.264C174.439 156.354 174.187 155.29 174.187 154.072C174.187 152.854 174.432 151.79 174.922 150.88C175.426 149.97 176.126 149.27 177.022 148.78C177.918 148.29 178.947 148.045 180.109 148.045C181.243 148.045 182.251 148.283 183.133 148.759C184.015 149.235 184.701 149.914 185.191 150.796C185.695 151.678 185.947 152.707 185.947 153.883ZM182.272 152.938C182.272 152.322 182.062 151.832 181.642 151.468C181.222 151.104 180.697 150.922 180.067 150.922C179.465 150.922 178.954 151.097 178.534 151.447C178.128 151.797 177.876 152.294 177.778 152.938H182.272ZM202.793 148.087C204.249 148.087 205.404 148.528 206.258 149.41C207.126 150.292 207.56 151.517 207.56 153.085V159.931H203.99V153.568C203.99 152.812 203.787 152.231 203.381 151.825C202.989 151.405 202.443 151.195 201.743 151.195C201.043 151.195 200.49 151.405 200.084 151.825C199.692 152.231 199.496 152.812 199.496 153.568V159.931H195.926V153.568C195.926 152.812 195.723 152.231 195.317 151.825C194.925 151.405 194.379 151.195 193.679 151.195C192.979 151.195 192.426 151.405 192.02 151.825C191.628 152.231 191.432 152.812 191.432 153.568V159.931H187.841V148.213H191.432V149.683C191.796 149.193 192.272 148.808 192.86 148.528C193.448 148.234 194.113 148.087 194.855 148.087C195.737 148.087 196.521 148.276 197.207 148.654C197.907 149.032 198.453 149.571 198.845 150.271C199.251 149.627 199.804 149.102 200.504 148.696C201.204 148.29 201.967 148.087 202.793 148.087ZM213.662 149.872C213.998 149.326 214.481 148.885 215.111 148.549C215.741 148.213 216.462 148.045 217.274 148.045C218.24 148.045 219.115 148.29 219.899 148.78C220.683 149.27 221.299 149.97 221.747 150.88C222.209 151.79 222.44 152.847 222.44 154.051C222.44 155.255 222.209 156.319 221.747 157.243C221.299 158.153 220.683 158.86 219.899 159.364C219.115 159.854 218.24 160.099 217.274 160.099C216.448 160.099 215.727 159.938 215.111 159.616C214.495 159.28 214.012 158.839 213.662 158.293V159.931H210.071V144.391H213.662V149.872ZM218.786 154.051C218.786 153.155 218.534 152.455 218.03 151.951C217.54 151.433 216.931 151.174 216.203 151.174C215.489 151.174 214.88 151.433 214.376 151.951C213.886 152.469 213.641 153.176 213.641 154.072C213.641 154.968 213.886 155.675 214.376 156.193C214.88 156.711 215.489 156.97 216.203 156.97C216.917 156.97 217.526 156.711 218.03 156.193C218.534 155.661 218.786 154.947 218.786 154.051ZM235.37 153.883C235.37 154.219 235.349 154.569 235.307 154.933H227.18C227.236 155.661 227.467 156.221 227.873 156.613C228.293 156.991 228.804 157.18 229.406 157.18C230.302 157.18 230.925 156.802 231.275 156.046H235.097C234.901 156.816 234.544 157.509 234.026 158.125C233.522 158.741 232.885 159.224 232.115 159.574C231.345 159.924 230.484 160.099 229.532 160.099C228.384 160.099 227.362 159.854 226.466 159.364C225.57 158.874 224.87 158.174 224.366 157.264C223.862 156.354 223.61 155.29 223.61 154.072C223.61 152.854 223.855 151.79 224.345 150.88C224.849 149.97 225.549 149.27 226.445 148.78C227.341 148.29 228.37 148.045 229.532 148.045C230.666 148.045 231.674 148.283 232.556 148.759C233.438 149.235 234.124 149.914 234.614 150.796C235.118 151.678 235.37 152.707 235.37 153.883ZM231.695 152.938C231.695 152.322 231.485 151.832 231.065 151.468C230.645 151.104 230.12 150.922 229.49 150.922C228.888 150.922 228.377 151.097 227.957 151.447C227.551 151.797 227.299 152.294 227.201 152.938H231.695ZM240.856 150.166C241.276 149.522 241.801 149.018 242.431 148.654C243.061 148.276 243.761 148.087 244.531 148.087V151.888H243.544C242.648 151.888 241.976 152.084 241.528 152.476C241.08 152.854 240.856 153.526 240.856 154.492V159.931H237.265V148.213H240.856V150.166Z" fill="white"/>
<defs>
<filter id="filter0_d_208_5" x="526.975" y="215.758" width="409.03" height="110.96" filterUnits="userSpaceOnUse" color-interpolation-filters="sRGB">
<feFlood flood-opacity="0" result="BackgroundImageFix"/>
<feColorMatrix in="SourceAlpha" type="matrix" values="0 0 0 0 0 0 0 0 0 0 0 0 0 0 0 0 0 0 127 0" result="hardAlpha"/>
<feOffset dx="-4" dy="-4"/>
<feGaussianBlur stdDeviation="4"/>
<feComposite in2="hardAlpha" operator="out"/>
<feColorMatrix type="matrix" values="0 0 0 0 0 0 0 0 0 0 0 0 0 0 0 0 0 0 0.5 0"/>
<feBlend mode="normal" in2="BackgroundImageFix" result="effect1_dropShadow_208_5"/>
<feBlend mode="normal" in="SourceGraphic" in2="effect1_dropShadow_208_5" result="shape"/>
</filter>
<filter id="filter1_d_208_5" x="526.975" y="152.539" width="404.66" height="80.76" filterUnits="userSpaceOnUse" color-interpolation-filters="sRGB">
<feFlood flood-opacity="0" result="BackgroundImageFix"/>
<feColorMatrix in="SourceAlpha" type="matrix" values="0 0 0 0 0 0 0 0 0 0 0 0 0 0 0 0 0 0 127 0" result="hardAlpha"/>
<feOffset dx="-4" dy="-4"/>
<feGaussianBlur stdDeviation="4"/>
<feComposite in2="hardAlpha" operator="out"/>
<feColorMatrix type="matrix" values="0 0 0 0 0 0 0 0 0 0 0 0 0 0 0 0 0 0 0.5 0"/>
<feBlend mode="normal" in2="BackgroundImageFix" result="effect1_dropShadow_208_5"/>
<feBlend mode="normal" in="SourceGraphic" in2="effect1_dropShadow_208_5" result="shape"/>
</filter>
<filter id="filter2_d_208_5" x="522.605" y="59.1201" width="409.03" height="110.96" filterUnits="userSpaceOnUse" color-interpolation-filters="sRGB">
<feFlood flood-opacity="0" result="BackgroundImageFix"/>
<feColorMatrix in="SourceAlpha" type="matrix" values="0 0 0 0 0 0 0 0 0 0 0 0 0 0 0 0 0 0 127 0" result="hardAlpha"/>
<feOffset dx="-4" dy="-4"/>
<feGaussianBlur stdDeviation="4"/>
<feComposite in2="hardAlpha" operator="out"/>
<feColorMatrix type="matrix" values="0 0 0 0 0 0 0 0 0 0 0 0 0 0 0 0 0 0 0.5 0"/>
<feBlend mode="normal" in2="BackgroundImageFix" result="effect1_dropShadow_208_5"/>
<feBlend mode="normal" in="SourceGraphic" in2="effect1_dropShadow_208_5" result="shape"/>
</filter>
</defs>
</svg>
