<svg width="1009" height="393" viewBox="0 0 1009 393" fill="none" xmlns="http://www.w3.org/2000/svg">
<rect x="0.490173" y="0.376221" width="1008" height="392" fill="#262626"/>
<g filter="url(#filter0_d_168_443)">
<rect x="786.18" y="254.811" width="194.31" height="64.76" rx="7" fill="#171717"/>
<path d="M838.365 279.449C839.919 279.449 841.277 279.757 842.439 280.373C843.601 280.989 844.497 281.857 845.127 282.977C845.771 284.083 846.093 285.364 846.093 286.82C846.093 288.262 845.771 289.543 845.127 290.663C844.497 291.783 843.594 292.651 842.418 293.267C841.256 293.883 839.905 294.191 838.365 294.191H832.842V279.449H838.365ZM838.134 291.083C839.492 291.083 840.549 290.712 841.305 289.97C842.061 289.228 842.439 288.178 842.439 286.82C842.439 285.462 842.061 284.405 841.305 283.649C840.549 282.893 839.492 282.515 838.134 282.515H836.433V291.083H838.134ZM859.146 288.143C859.146 288.479 859.125 288.829 859.083 289.193H850.956C851.012 289.921 851.243 290.481 851.649 290.873C852.069 291.251 852.58 291.44 853.182 291.44C854.078 291.44 854.701 291.062 855.051 290.306H858.873C858.677 291.076 858.32 291.769 857.802 292.385C857.298 293.001 856.661 293.484 855.891 293.834C855.121 294.184 854.26 294.359 853.308 294.359C852.16 294.359 851.138 294.114 850.242 293.624C849.346 293.134 848.646 292.434 848.142 291.524C847.638 290.614 847.386 289.55 847.386 288.332C847.386 287.114 847.631 286.05 848.121 285.14C848.625 284.23 849.325 283.53 850.221 283.04C851.117 282.55 852.146 282.305 853.308 282.305C854.442 282.305 855.45 282.543 856.332 283.019C857.214 283.495 857.9 284.174 858.39 285.056C858.894 285.938 859.146 286.967 859.146 288.143ZM855.471 287.198C855.471 286.582 855.261 286.092 854.841 285.728C854.421 285.364 853.896 285.182 853.266 285.182C852.664 285.182 852.153 285.357 851.733 285.707C851.327 286.057 851.075 286.554 850.977 287.198H855.471ZM864.632 278.651V294.191H861.041V278.651H864.632ZM878.28 288.143C878.28 288.479 878.259 288.829 878.217 289.193H870.09C870.146 289.921 870.377 290.481 870.783 290.873C871.203 291.251 871.714 291.44 872.316 291.44C873.212 291.44 873.835 291.062 874.185 290.306H878.007C877.811 291.076 877.454 291.769 876.936 292.385C876.432 293.001 875.795 293.484 875.025 293.834C874.255 294.184 873.394 294.359 872.442 294.359C871.294 294.359 870.272 294.114 869.376 293.624C868.48 293.134 867.78 292.434 867.276 291.524C866.772 290.614 866.52 289.55 866.52 288.332C866.52 287.114 866.765 286.05 867.255 285.14C867.759 284.23 868.459 283.53 869.355 283.04C870.251 282.55 871.28 282.305 872.442 282.305C873.576 282.305 874.584 282.543 875.466 283.019C876.348 283.495 877.034 284.174 877.524 285.056C878.028 285.938 878.28 286.967 878.28 288.143ZM874.605 287.198C874.605 286.582 874.395 286.092 873.975 285.728C873.555 285.364 873.03 285.182 872.4 285.182C871.798 285.182 871.287 285.357 870.867 285.707C870.461 286.057 870.209 286.554 870.111 287.198H874.605ZM886.705 291.146V294.191H884.878C883.576 294.191 882.561 293.876 881.833 293.246C881.105 292.602 880.741 291.559 880.741 290.117V285.455H879.313V282.473H880.741V279.617H884.332V282.473H886.684V285.455H884.332V290.159C884.332 290.509 884.416 290.761 884.584 290.915C884.752 291.069 885.032 291.146 885.424 291.146H886.705ZM899.752 288.143C899.752 288.479 899.731 288.829 899.689 289.193H891.562C891.618 289.921 891.849 290.481 892.255 290.873C892.675 291.251 893.186 291.44 893.788 291.44C894.684 291.44 895.307 291.062 895.657 290.306H899.479C899.283 291.076 898.926 291.769 898.408 292.385C897.904 293.001 897.267 293.484 896.497 293.834C895.727 294.184 894.866 294.359 893.914 294.359C892.766 294.359 891.744 294.114 890.848 293.624C889.952 293.134 889.252 292.434 888.748 291.524C888.244 290.614 887.992 289.55 887.992 288.332C887.992 287.114 888.237 286.05 888.727 285.14C889.231 284.23 889.931 283.53 890.827 283.04C891.723 282.55 892.752 282.305 893.914 282.305C895.048 282.305 896.056 282.543 896.938 283.019C897.82 283.495 898.506 284.174 898.996 285.056C899.5 285.938 899.752 286.967 899.752 288.143ZM896.077 287.198C896.077 286.582 895.867 286.092 895.447 285.728C895.027 285.364 894.502 285.182 893.872 285.182C893.27 285.182 892.759 285.357 892.339 285.707C891.933 286.057 891.681 286.554 891.583 287.198H896.077ZM919.935 279.449L914.706 294.191H910.212L904.983 279.449H908.805L912.459 290.579L916.134 279.449H919.935ZM920.827 286.799C920.827 285.343 921.142 284.048 921.772 282.914C922.402 281.766 923.277 280.877 924.397 280.247C925.531 279.603 926.812 279.281 928.24 279.281C929.99 279.281 931.488 279.743 932.734 280.667C933.98 281.591 934.813 282.851 935.233 284.447H931.285C930.991 283.831 930.571 283.362 930.025 283.04C929.493 282.718 928.884 282.557 928.198 282.557C927.092 282.557 926.196 282.942 925.51 283.712C924.824 284.482 924.481 285.511 924.481 286.799C924.481 288.087 924.824 289.116 925.51 289.886C926.196 290.656 927.092 291.041 928.198 291.041C928.884 291.041 929.493 290.88 930.025 290.558C930.571 290.236 930.991 289.767 931.285 289.151H935.233C934.813 290.747 933.98 292.007 932.734 292.931C931.488 293.841 929.99 294.296 928.24 294.296C926.812 294.296 925.531 293.981 924.397 293.351C923.277 292.707 922.402 291.818 921.772 290.684C921.142 289.55 920.827 288.255 920.827 286.799Z" fill="white"/>
</g>
<g filter="url(#filter1_d_168_443)">
<rect x="573.738" y="254.811" width="194.31" height="64.76" rx="7" fill="#171717"/>
<path d="M609.525 294.551L604.569 288.041V294.551H600.978V279.809H604.569V286.277L609.483 279.809H613.704L607.992 287.033L613.914 294.551H609.525ZM617.427 281.615C616.797 281.615 616.279 281.433 615.873 281.069C615.481 280.691 615.285 280.229 615.285 279.683C615.285 279.123 615.481 278.661 615.873 278.297C616.279 277.919 616.797 277.73 617.427 277.73C618.043 277.73 618.547 277.919 618.939 278.297C619.345 278.661 619.548 279.123 619.548 279.683C619.548 280.229 619.345 280.691 618.939 281.069C618.547 281.433 618.043 281.615 617.427 281.615ZM619.212 282.833V294.551H615.621V282.833H619.212ZM621.1 288.692C621.1 287.474 621.345 286.41 621.835 285.5C622.339 284.59 623.032 283.89 623.914 283.4C624.81 282.91 625.832 282.665 626.98 282.665C628.45 282.665 629.675 283.05 630.655 283.82C631.649 284.59 632.3 285.675 632.608 287.075H628.786C628.464 286.179 627.841 285.731 626.917 285.731C626.259 285.731 625.734 285.99 625.342 286.508C624.95 287.012 624.754 287.74 624.754 288.692C624.754 289.644 624.95 290.379 625.342 290.897C625.734 291.401 626.259 291.653 626.917 291.653C627.841 291.653 628.464 291.205 628.786 290.309H632.608C632.3 291.681 631.649 292.759 630.655 293.543C629.661 294.327 628.436 294.719 626.98 294.719C625.832 294.719 624.81 294.474 623.914 293.984C623.032 293.494 622.339 292.794 621.835 291.884C621.345 290.974 621.1 289.91 621.1 288.692ZM641.69 294.551L638.12 289.637V294.551H634.529V279.011H638.12V287.6L641.669 282.833H646.1L641.228 288.713L646.142 294.551H641.69ZM668.656 279.809V294.551H665.065V285.71L661.768 294.551H658.87L655.552 285.689V294.551H651.961V279.809H656.203L660.34 290.015L664.435 279.809H668.656ZM682.284 288.503C682.284 288.839 682.263 289.189 682.221 289.553H674.094C674.15 290.281 674.381 290.841 674.787 291.233C675.207 291.611 675.718 291.8 676.32 291.8C677.216 291.8 677.839 291.422 678.189 290.666H682.011C681.815 291.436 681.458 292.129 680.94 292.745C680.436 293.361 679.799 293.844 679.029 294.194C678.259 294.544 677.398 294.719 676.446 294.719C675.298 294.719 674.276 294.474 673.38 293.984C672.484 293.494 671.784 292.794 671.28 291.884C670.776 290.974 670.524 289.91 670.524 288.692C670.524 287.474 670.769 286.41 671.259 285.5C671.763 284.59 672.463 283.89 673.359 283.4C674.255 282.91 675.284 282.665 676.446 282.665C677.58 282.665 678.588 282.903 679.47 283.379C680.352 283.855 681.038 284.534 681.528 285.416C682.032 286.298 682.284 287.327 682.284 288.503ZM678.609 287.558C678.609 286.942 678.399 286.452 677.979 286.088C677.559 285.724 677.034 285.542 676.404 285.542C675.802 285.542 675.291 285.717 674.871 286.067C674.465 286.417 674.213 286.914 674.115 287.558H678.609ZM699.13 282.707C700.586 282.707 701.741 283.148 702.595 284.03C703.463 284.912 703.897 286.137 703.897 287.705V294.551H700.327V288.188C700.327 287.432 700.124 286.851 699.718 286.445C699.326 286.025 698.78 285.815 698.08 285.815C697.38 285.815 696.827 286.025 696.421 286.445C696.029 286.851 695.833 287.432 695.833 288.188V294.551H692.263V288.188C692.263 287.432 692.06 286.851 691.654 286.445C691.262 286.025 690.716 285.815 690.016 285.815C689.316 285.815 688.763 286.025 688.357 286.445C687.965 286.851 687.769 287.432 687.769 288.188V294.551H684.178V282.833H687.769V284.303C688.133 283.813 688.609 283.428 689.197 283.148C689.785 282.854 690.45 282.707 691.192 282.707C692.074 282.707 692.858 282.896 693.544 283.274C694.244 283.652 694.79 284.191 695.182 284.891C695.588 284.247 696.141 283.722 696.841 283.316C697.541 282.91 698.304 282.707 699.13 282.707ZM710 284.492C710.336 283.946 710.819 283.505 711.449 283.169C712.079 282.833 712.8 282.665 713.612 282.665C714.578 282.665 715.453 282.91 716.237 283.4C717.021 283.89 717.637 284.59 718.085 285.5C718.547 286.41 718.778 287.467 718.778 288.671C718.778 289.875 718.547 290.939 718.085 291.863C717.637 292.773 717.021 293.48 716.237 293.984C715.453 294.474 714.578 294.719 713.612 294.719C712.786 294.719 712.065 294.558 711.449 294.236C710.833 293.9 710.35 293.459 710 292.913V294.551H706.409V279.011H710V284.492ZM715.124 288.671C715.124 287.775 714.872 287.075 714.368 286.571C713.878 286.053 713.269 285.794 712.541 285.794C711.827 285.794 711.218 286.053 710.714 286.571C710.224 287.089 709.979 287.796 709.979 288.692C709.979 289.588 710.224 290.295 710.714 290.813C711.218 291.331 711.827 291.59 712.541 291.59C713.255 291.59 713.864 291.331 714.368 290.813C714.872 290.281 715.124 289.567 715.124 288.671ZM731.708 288.503C731.708 288.839 731.687 289.189 731.645 289.553H723.518C723.574 290.281 723.805 290.841 724.211 291.233C724.631 291.611 725.142 291.8 725.744 291.8C726.64 291.8 727.263 291.422 727.613 290.666H731.435C731.239 291.436 730.882 292.129 730.364 292.745C729.86 293.361 729.223 293.844 728.453 294.194C727.683 294.544 726.822 294.719 725.87 294.719C724.722 294.719 723.7 294.474 722.804 293.984C721.908 293.494 721.208 292.794 720.704 291.884C720.2 290.974 719.948 289.91 719.948 288.692C719.948 287.474 720.193 286.41 720.683 285.5C721.187 284.59 721.887 283.89 722.783 283.4C723.679 282.91 724.708 282.665 725.87 282.665C727.004 282.665 728.012 282.903 728.894 283.379C729.776 283.855 730.462 284.534 730.952 285.416C731.456 286.298 731.708 287.327 731.708 288.503ZM728.033 287.558C728.033 286.942 727.823 286.452 727.403 286.088C726.983 285.724 726.458 285.542 725.828 285.542C725.226 285.542 724.715 285.717 724.295 286.067C723.889 286.417 723.637 286.914 723.539 287.558H728.033ZM737.193 284.786C737.613 284.142 738.138 283.638 738.768 283.274C739.398 282.896 740.098 282.707 740.868 282.707V286.508H739.881C738.985 286.508 738.313 286.704 737.865 287.096C737.417 287.474 737.193 288.146 737.193 289.112V294.551H733.602V282.833H737.193V284.786Z" fill="white"/>
</g>
<line x1="596.42" y1="196.246" x2="746.42" y2="196.246" stroke="#5765F2" stroke-width="5"/>
<line x1="806.843" y1="196.246" x2="956.843" y2="196.246" stroke="#5765F2" stroke-width="5"/>
<path d="M769.661 203.523C768.275 203.523 767.001 203.201 765.839 202.557C764.691 201.913 763.774 201.017 763.088 199.869C762.416 198.707 762.08 197.405 762.08 195.963C762.08 194.521 762.416 193.226 763.088 192.078C763.774 190.93 764.691 190.034 765.839 189.39C767.001 188.746 768.275 188.424 769.661 188.424C771.047 188.424 772.314 188.746 773.462 189.39C774.624 190.034 775.534 190.93 776.192 192.078C776.864 193.226 777.2 194.521 777.2 195.963C777.2 197.405 776.864 198.707 776.192 199.869C775.52 201.017 774.61 201.913 773.462 202.557C772.314 203.201 771.047 203.523 769.661 203.523ZM769.661 200.247C770.837 200.247 771.775 199.855 772.475 199.071C773.189 198.287 773.546 197.251 773.546 195.963C773.546 194.661 773.189 193.625 772.475 192.855C771.775 192.071 770.837 191.679 769.661 191.679C768.471 191.679 767.519 192.064 766.805 192.834C766.105 193.604 765.755 194.647 765.755 195.963C765.755 197.265 766.105 198.308 766.805 199.092C767.519 199.862 768.471 200.247 769.661 200.247ZM786.716 203.376L783.65 197.811H782.789V203.376H779.198V188.634H785.225C786.387 188.634 787.374 188.837 788.186 189.243C789.012 189.649 789.628 190.209 790.034 190.923C790.44 191.623 790.643 192.407 790.643 193.275C790.643 194.255 790.363 195.13 789.803 195.9C789.257 196.67 788.445 197.216 787.367 197.538L790.769 203.376H786.716ZM782.789 195.27H785.015C785.673 195.27 786.163 195.109 786.485 194.787C786.821 194.465 786.989 194.01 786.989 193.422C786.989 192.862 786.821 192.421 786.485 192.099C786.163 191.777 785.673 191.616 785.015 191.616H782.789V195.27Z" fill="white"/>
<g filter="url(#filter2_d_168_443)">
<rect x="786.18" y="73.1812" width="194.31" height="64.76" rx="7" fill="#171717"/>
<path d="M824.428 97.8192V112.561H820.837V103.72L817.54 112.561H814.642L811.324 103.699V112.561H807.733V97.8192H811.975L816.112 108.025L820.207 97.8192H824.428ZM832.344 112.729C831.196 112.729 830.16 112.484 829.236 111.994C828.326 111.504 827.605 110.804 827.073 109.894C826.555 108.984 826.296 107.92 826.296 106.702C826.296 105.498 826.562 104.441 827.094 103.531C827.626 102.607 828.354 101.9 829.278 101.41C830.202 100.92 831.238 100.675 832.386 100.675C833.534 100.675 834.57 100.92 835.494 101.41C836.418 101.9 837.146 102.607 837.678 103.531C838.21 104.441 838.476 105.498 838.476 106.702C838.476 107.906 838.203 108.97 837.657 109.894C837.125 110.804 836.39 111.504 835.452 111.994C834.528 112.484 833.492 112.729 832.344 112.729ZM832.344 109.621C833.03 109.621 833.611 109.369 834.087 108.865C834.577 108.361 834.822 107.64 834.822 106.702C834.822 105.764 834.584 105.043 834.108 104.539C833.646 104.035 833.072 103.783 832.386 103.783C831.686 103.783 831.105 104.035 830.643 104.539C830.181 105.029 829.95 105.75 829.95 106.702C829.95 107.64 830.174 108.361 830.622 108.865C831.084 109.369 831.658 109.621 832.344 109.621ZM845.652 109.201L848.193 100.843H852.015L847.857 112.561H843.426L839.268 100.843H843.111L845.652 109.201ZM864.573 106.513C864.573 106.849 864.552 107.199 864.51 107.563H856.383C856.439 108.291 856.67 108.851 857.076 109.243C857.496 109.621 858.007 109.81 858.609 109.81C859.505 109.81 860.128 109.432 860.478 108.676H864.3C864.104 109.446 863.747 110.139 863.229 110.755C862.725 111.371 862.088 111.854 861.318 112.204C860.548 112.554 859.687 112.729 858.735 112.729C857.587 112.729 856.565 112.484 855.669 111.994C854.773 111.504 854.073 110.804 853.569 109.894C853.065 108.984 852.813 107.92 852.813 106.702C852.813 105.484 853.058 104.42 853.548 103.51C854.052 102.6 854.752 101.9 855.648 101.41C856.544 100.92 857.573 100.675 858.735 100.675C859.869 100.675 860.877 100.913 861.759 101.389C862.641 101.865 863.327 102.544 863.817 103.426C864.321 104.308 864.573 105.337 864.573 106.513ZM860.898 105.568C860.898 104.952 860.688 104.462 860.268 104.098C859.848 103.734 859.323 103.552 858.693 103.552C858.091 103.552 857.58 103.727 857.16 104.077C856.754 104.427 856.502 104.924 856.404 105.568H860.898ZM887.612 97.8192V112.561H884.021V103.72L880.724 112.561H877.826L874.508 103.699V112.561H870.917V97.8192H875.159L879.296 108.025L883.391 97.8192H887.612ZM901.241 106.513C901.241 106.849 901.22 107.199 901.178 107.563H893.051C893.107 108.291 893.338 108.851 893.744 109.243C894.164 109.621 894.675 109.81 895.277 109.81C896.173 109.81 896.796 109.432 897.146 108.676H900.968C900.772 109.446 900.415 110.139 899.897 110.755C899.393 111.371 898.756 111.854 897.986 112.204C897.216 112.554 896.355 112.729 895.403 112.729C894.255 112.729 893.233 112.484 892.337 111.994C891.441 111.504 890.741 110.804 890.237 109.894C889.733 108.984 889.481 107.92 889.481 106.702C889.481 105.484 889.726 104.42 890.216 103.51C890.72 102.6 891.42 101.9 892.316 101.41C893.212 100.92 894.241 100.675 895.403 100.675C896.537 100.675 897.545 100.913 898.427 101.389C899.309 101.865 899.995 102.544 900.485 103.426C900.989 104.308 901.241 105.337 901.241 106.513ZM897.566 105.568C897.566 104.952 897.356 104.462 896.936 104.098C896.516 103.734 895.991 103.552 895.361 103.552C894.759 103.552 894.248 103.727 893.828 104.077C893.422 104.427 893.17 104.924 893.072 105.568H897.566ZM918.087 100.717C919.543 100.717 920.698 101.158 921.552 102.04C922.42 102.922 922.854 104.147 922.854 105.715V112.561H919.284V106.198C919.284 105.442 919.081 104.861 918.675 104.455C918.283 104.035 917.737 103.825 917.037 103.825C916.337 103.825 915.784 104.035 915.378 104.455C914.986 104.861 914.79 105.442 914.79 106.198V112.561H911.22V106.198C911.22 105.442 911.017 104.861 910.611 104.455C910.219 104.035 909.673 103.825 908.973 103.825C908.273 103.825 907.72 104.035 907.314 104.455C906.922 104.861 906.726 105.442 906.726 106.198V112.561H903.135V100.843H906.726V102.313C907.09 101.823 907.566 101.438 908.154 101.158C908.742 100.864 909.407 100.717 910.149 100.717C911.031 100.717 911.815 100.906 912.501 101.284C913.201 101.662 913.747 102.201 914.139 102.901C914.545 102.257 915.098 101.732 915.798 101.326C916.498 100.92 917.261 100.717 918.087 100.717ZM928.957 102.502C929.293 101.956 929.776 101.515 930.406 101.179C931.036 100.843 931.757 100.675 932.569 100.675C933.535 100.675 934.41 100.92 935.194 101.41C935.978 101.9 936.594 102.6 937.042 103.51C937.504 104.42 937.735 105.477 937.735 106.681C937.735 107.885 937.504 108.949 937.042 109.873C936.594 110.783 935.978 111.49 935.194 111.994C934.41 112.484 933.535 112.729 932.569 112.729C931.743 112.729 931.022 112.568 930.406 112.246C929.79 111.91 929.307 111.469 928.957 110.923V112.561H925.366V97.0212H928.957V102.502ZM934.081 106.681C934.081 105.785 933.829 105.085 933.325 104.581C932.835 104.063 932.226 103.804 931.498 103.804C930.784 103.804 930.175 104.063 929.671 104.581C929.181 105.099 928.936 105.806 928.936 106.702C928.936 107.598 929.181 108.305 929.671 108.823C930.175 109.341 930.784 109.6 931.498 109.6C932.212 109.6 932.821 109.341 933.325 108.823C933.829 108.291 934.081 107.577 934.081 106.681ZM950.665 106.513C950.665 106.849 950.644 107.199 950.602 107.563H942.475C942.531 108.291 942.762 108.851 943.168 109.243C943.588 109.621 944.099 109.81 944.701 109.81C945.597 109.81 946.22 109.432 946.57 108.676H950.392C950.196 109.446 949.839 110.139 949.321 110.755C948.817 111.371 948.18 111.854 947.41 112.204C946.64 112.554 945.779 112.729 944.827 112.729C943.679 112.729 942.657 112.484 941.761 111.994C940.865 111.504 940.165 110.804 939.661 109.894C939.157 108.984 938.905 107.92 938.905 106.702C938.905 105.484 939.15 104.42 939.64 103.51C940.144 102.6 940.844 101.9 941.74 101.41C942.636 100.92 943.665 100.675 944.827 100.675C945.961 100.675 946.969 100.913 947.851 101.389C948.733 101.865 949.419 102.544 949.909 103.426C950.413 104.308 950.665 105.337 950.665 106.513ZM946.99 105.568C946.99 104.952 946.78 104.462 946.36 104.098C945.94 103.734 945.415 103.552 944.785 103.552C944.183 103.552 943.672 103.727 943.252 104.077C942.846 104.427 942.594 104.924 942.496 105.568H946.99ZM956.15 102.796C956.57 102.152 957.095 101.648 957.725 101.284C958.355 100.906 959.055 100.717 959.825 100.717V104.518H958.838C957.942 104.518 957.27 104.714 956.822 105.106C956.374 105.484 956.15 106.156 956.15 107.122V112.561H952.559V100.843H956.15V102.796Z" fill="white"/>
</g>
<g filter="url(#filter3_d_168_443)">
<rect x="573.738" y="73.1813" width="194.31" height="64.76" rx="7" fill="#171717"/>
<path d="M616.871 105.529C616.871 104.073 617.186 102.778 617.816 101.644C618.446 100.496 619.321 99.6073 620.441 98.9773C621.575 98.3333 622.856 98.0113 624.284 98.0113C626.034 98.0113 627.532 98.4733 628.778 99.3973C630.024 100.321 630.857 101.581 631.277 103.177H627.329C627.035 102.561 626.615 102.092 626.069 101.77C625.537 101.448 624.928 101.287 624.242 101.287C623.136 101.287 622.24 101.672 621.554 102.442C620.868 103.212 620.525 104.241 620.525 105.529C620.525 106.817 620.868 107.846 621.554 108.616C622.24 109.386 623.136 109.771 624.242 109.771C624.928 109.771 625.537 109.61 626.069 109.288C626.615 108.966 627.035 108.497 627.329 107.881H631.277C630.857 109.477 630.024 110.737 628.778 111.661C627.532 112.571 626.034 113.026 624.284 113.026C622.856 113.026 621.575 112.711 620.441 112.081C619.321 111.437 618.446 110.548 617.816 109.414C617.186 108.28 616.871 106.985 616.871 105.529ZM637.067 103.156C637.487 102.512 638.012 102.008 638.642 101.644C639.272 101.266 639.972 101.077 640.742 101.077V104.878H639.755C638.859 104.878 638.187 105.074 637.739 105.466C637.291 105.844 637.067 106.516 637.067 107.482V112.921H633.476V101.203H637.067V103.156ZM653.504 106.873C653.504 107.209 653.483 107.559 653.441 107.923H645.314C645.37 108.651 645.601 109.211 646.007 109.603C646.427 109.981 646.938 110.17 647.54 110.17C648.436 110.17 649.059 109.792 649.409 109.036H653.231C653.035 109.806 652.678 110.499 652.16 111.115C651.656 111.731 651.019 112.214 650.249 112.564C649.479 112.914 648.618 113.089 647.666 113.089C646.518 113.089 645.496 112.844 644.6 112.354C643.704 111.864 643.004 111.164 642.5 110.254C641.996 109.344 641.744 108.28 641.744 107.062C641.744 105.844 641.989 104.78 642.479 103.87C642.983 102.96 643.683 102.26 644.579 101.77C645.475 101.28 646.504 101.035 647.666 101.035C648.8 101.035 649.808 101.273 650.69 101.749C651.572 102.225 652.258 102.904 652.748 103.786C653.252 104.668 653.504 105.697 653.504 106.873ZM649.829 105.928C649.829 105.312 649.619 104.822 649.199 104.458C648.779 104.094 648.254 103.912 647.624 103.912C647.022 103.912 646.511 104.087 646.091 104.437C645.685 104.787 645.433 105.284 645.335 105.928H649.829ZM654.685 107.041C654.685 105.837 654.909 104.78 655.357 103.87C655.819 102.96 656.442 102.26 657.226 101.77C658.01 101.28 658.885 101.035 659.851 101.035C660.677 101.035 661.398 101.203 662.014 101.539C662.644 101.875 663.127 102.316 663.463 102.862V101.203H667.054V112.921H663.463V111.262C663.113 111.808 662.623 112.249 661.993 112.585C661.377 112.921 660.656 113.089 659.83 113.089C658.878 113.089 658.01 112.844 657.226 112.354C656.442 111.85 655.819 111.143 655.357 110.233C654.909 109.309 654.685 108.245 654.685 107.041ZM663.463 107.062C663.463 106.166 663.211 105.459 662.707 104.941C662.217 104.423 661.615 104.164 660.901 104.164C660.187 104.164 659.578 104.423 659.074 104.941C658.584 105.445 658.339 106.145 658.339 107.041C658.339 107.937 658.584 108.651 659.074 109.183C659.578 109.701 660.187 109.96 660.901 109.96C661.615 109.96 662.217 109.701 662.707 109.183C663.211 108.665 663.463 107.958 663.463 107.062ZM676.183 109.876V112.921H674.356C673.054 112.921 672.039 112.606 671.311 111.976C670.583 111.332 670.219 110.289 670.219 108.847V104.185H668.791V101.203H670.219V98.3473H673.81V101.203H676.162V104.185H673.81V108.889C673.81 109.239 673.894 109.491 674.062 109.645C674.23 109.799 674.51 109.876 674.902 109.876H676.183ZM689.229 106.873C689.229 107.209 689.208 107.559 689.166 107.923H681.039C681.095 108.651 681.326 109.211 681.732 109.603C682.152 109.981 682.663 110.17 683.265 110.17C684.161 110.17 684.784 109.792 685.134 109.036H688.956C688.76 109.806 688.403 110.499 687.885 111.115C687.381 111.731 686.744 112.214 685.974 112.564C685.204 112.914 684.343 113.089 683.391 113.089C682.243 113.089 681.221 112.844 680.325 112.354C679.429 111.864 678.729 111.164 678.225 110.254C677.721 109.344 677.469 108.28 677.469 107.062C677.469 105.844 677.714 104.78 678.204 103.87C678.708 102.96 679.408 102.26 680.304 101.77C681.2 101.28 682.229 101.035 683.391 101.035C684.525 101.035 685.533 101.273 686.415 101.749C687.297 102.225 687.983 102.904 688.473 103.786C688.977 104.668 689.229 105.697 689.229 106.873ZM685.554 105.928C685.554 105.312 685.344 104.822 684.924 104.458C684.504 104.094 683.979 103.912 683.349 103.912C682.747 103.912 682.236 104.087 681.816 104.437C681.41 104.787 681.158 105.284 681.06 105.928H685.554ZM709.413 98.1793L704.184 112.921H699.69L694.461 98.1793H698.283L701.937 109.309L705.612 98.1793H709.413ZM710.304 105.529C710.304 104.073 710.619 102.778 711.249 101.644C711.879 100.496 712.754 99.6073 713.874 98.9773C715.008 98.3333 716.289 98.0113 717.717 98.0113C719.467 98.0113 720.965 98.4733 722.211 99.3973C723.457 100.321 724.29 101.581 724.71 103.177H720.762C720.468 102.561 720.048 102.092 719.502 101.77C718.97 101.448 718.361 101.287 717.675 101.287C716.569 101.287 715.673 101.672 714.987 102.442C714.301 103.212 713.958 104.241 713.958 105.529C713.958 106.817 714.301 107.846 714.987 108.616C715.673 109.386 716.569 109.771 717.675 109.771C718.361 109.771 718.97 109.61 719.502 109.288C720.048 108.966 720.468 108.497 720.762 107.881H724.71C724.29 109.477 723.457 110.737 722.211 111.661C720.965 112.571 719.467 113.026 717.717 113.026C716.289 113.026 715.008 112.711 713.874 112.081C712.754 111.437 711.879 110.548 711.249 109.414C710.619 108.28 710.304 106.985 710.304 105.529Z" fill="white"/>
</g>
<g filter="url(#filter4_d_168_443)">
<rect x="28.4902" y="28.3762" width="462" height="154.37" rx="7" fill="#171717"/>
<path d="M28.4902 35.3762C28.4902 31.5102 31.6242 28.3762 35.4902 28.3762H37.2307V182.746H35.4902C31.6242 182.746 28.4902 179.612 28.4902 175.746V35.3762Z" fill="#5865F2"/>
<path d="M54.464 101.343C54.464 97.4768 57.598 94.3428 61.464 94.3428H397.464C401.33 94.3428 404.464 97.4768 404.464 101.343V118.843C404.464 122.709 401.33 125.843 397.464 125.843H61.464C57.598 125.843 54.464 122.709 54.464 118.843V101.343Z" fill="#262626"/>
<path d="M54.464 148.98C54.464 145.114 57.598 141.98 61.464 141.98H134.964C138.83 141.98 141.964 145.114 141.964 148.98V159.48C141.964 163.346 138.83 166.48 134.964 166.48H61.464C57.598 166.48 54.464 163.346 54.464 159.48V148.98Z" fill="#353535"/>
<path d="M72.461 53.3737V68.1157H68.87V59.2747L65.573 68.1157H62.675L59.357 59.2537V68.1157H55.766V53.3737H60.008L64.145 63.5797L68.24 53.3737H72.461ZM86.0893 62.0677C86.0893 62.4037 86.0683 62.7537 86.0263 63.1177H77.8993C77.9553 63.8457 78.1863 64.4057 78.5923 64.7977C79.0123 65.1757 79.5233 65.3647 80.1253 65.3647C81.0213 65.3647 81.6443 64.9867 81.9943 64.2307H85.8163C85.6203 65.0007 85.2633 65.6937 84.7453 66.3097C84.2413 66.9257 83.6043 67.4087 82.8343 67.7587C82.0643 68.1087 81.2033 68.2837 80.2513 68.2837C79.1033 68.2837 78.0813 68.0387 77.1853 67.5487C76.2893 67.0587 75.5893 66.3587 75.0853 65.4487C74.5813 64.5387 74.3293 63.4747 74.3293 62.2567C74.3293 61.0387 74.5743 59.9747 75.0643 59.0647C75.5683 58.1547 76.2683 57.4547 77.1643 56.9647C78.0603 56.4747 79.0893 56.2297 80.2513 56.2297C81.3853 56.2297 82.3933 56.4677 83.2753 56.9437C84.1573 57.4197 84.8433 58.0987 85.3333 58.9807C85.8373 59.8627 86.0893 60.8917 86.0893 62.0677ZM82.4143 61.1227C82.4143 60.5067 82.2043 60.0167 81.7843 59.6527C81.3643 59.2887 80.8393 59.1067 80.2093 59.1067C79.6073 59.1067 79.0963 59.2817 78.6763 59.6317C78.2703 59.9817 78.0183 60.4787 77.9203 61.1227H82.4143ZM102.936 56.2717C104.392 56.2717 105.547 56.7127 106.401 57.5947C107.269 58.4767 107.703 59.7017 107.703 61.2697V68.1157H104.133V61.7527C104.133 60.9967 103.93 60.4157 103.524 60.0097C103.132 59.5897 102.586 59.3797 101.886 59.3797C101.186 59.3797 100.633 59.5897 100.227 60.0097C99.8348 60.4157 99.6388 60.9967 99.6388 61.7527V68.1157H96.0688V61.7527C96.0688 60.9967 95.8658 60.4157 95.4598 60.0097C95.0678 59.5897 94.5218 59.3797 93.8218 59.3797C93.1218 59.3797 92.5688 59.5897 92.1628 60.0097C91.7708 60.4157 91.5748 60.9967 91.5748 61.7527V68.1157H87.9838V56.3977H91.5748V57.8677C91.9388 57.3777 92.4148 56.9927 93.0028 56.7127C93.5908 56.4187 94.2558 56.2717 94.9978 56.2717C95.8798 56.2717 96.6638 56.4607 97.3498 56.8387C98.0498 57.2167 98.5958 57.7557 98.9878 58.4557C99.3938 57.8117 99.9468 57.2867 100.647 56.8807C101.347 56.4747 102.11 56.2717 102.936 56.2717ZM113.805 58.0567C114.141 57.5107 114.624 57.0697 115.254 56.7337C115.884 56.3977 116.605 56.2297 117.417 56.2297C118.383 56.2297 119.258 56.4747 120.042 56.9647C120.826 57.4547 121.442 58.1547 121.89 59.0647C122.352 59.9747 122.583 61.0317 122.583 62.2357C122.583 63.4397 122.352 64.5037 121.89 65.4277C121.442 66.3377 120.826 67.0447 120.042 67.5487C119.258 68.0387 118.383 68.2837 117.417 68.2837C116.591 68.2837 115.87 68.1227 115.254 67.8007C114.638 67.4647 114.155 67.0237 113.805 66.4777V68.1157H110.214V52.5757H113.805V58.0567ZM118.929 62.2357C118.929 61.3397 118.677 60.6397 118.173 60.1357C117.683 59.6177 117.074 59.3587 116.346 59.3587C115.632 59.3587 115.023 59.6177 114.519 60.1357C114.029 60.6537 113.784 61.3607 113.784 62.2567C113.784 63.1527 114.029 63.8597 114.519 64.3777C115.023 64.8957 115.632 65.1547 116.346 65.1547C117.06 65.1547 117.669 64.8957 118.173 64.3777C118.677 63.8457 118.929 63.1317 118.929 62.2357ZM135.513 62.0677C135.513 62.4037 135.492 62.7537 135.45 63.1177H127.323C127.379 63.8457 127.61 64.4057 128.016 64.7977C128.436 65.1757 128.947 65.3647 129.549 65.3647C130.445 65.3647 131.068 64.9867 131.418 64.2307H135.24C135.044 65.0007 134.687 65.6937 134.169 66.3097C133.665 66.9257 133.028 67.4087 132.258 67.7587C131.488 68.1087 130.627 68.2837 129.675 68.2837C128.527 68.2837 127.505 68.0387 126.609 67.5487C125.713 67.0587 125.013 66.3587 124.509 65.4487C124.005 64.5387 123.753 63.4747 123.753 62.2567C123.753 61.0387 123.998 59.9747 124.488 59.0647C124.992 58.1547 125.692 57.4547 126.588 56.9647C127.484 56.4747 128.513 56.2297 129.675 56.2297C130.809 56.2297 131.817 56.4677 132.699 56.9437C133.581 57.4197 134.267 58.0987 134.757 58.9807C135.261 59.8627 135.513 60.8917 135.513 62.0677ZM131.838 61.1227C131.838 60.5067 131.628 60.0167 131.208 59.6527C130.788 59.2887 130.263 59.1067 129.633 59.1067C129.031 59.1067 128.52 59.2817 128.1 59.6317C127.694 59.9817 127.442 60.4787 127.344 61.1227H131.838ZM140.999 58.3507C141.419 57.7067 141.944 57.2027 142.574 56.8387C143.204 56.4607 143.904 56.2717 144.674 56.2717V60.0727H143.687C142.791 60.0727 142.119 60.2687 141.671 60.6607C141.223 61.0387 140.999 61.7107 140.999 62.6767V68.1157H137.408V56.3977H140.999V58.3507ZM160.08 53.3737V63.4117C160.08 64.9657 159.639 66.1627 158.757 67.0027C157.889 67.8427 156.713 68.2627 155.229 68.2627C153.675 68.2627 152.429 67.8217 151.491 66.9397C150.553 66.0577 150.084 64.8047 150.084 63.1807H153.654C153.654 63.7967 153.78 64.2657 154.032 64.5877C154.284 64.8957 154.648 65.0497 155.124 65.0497C155.558 65.0497 155.894 64.9097 156.132 64.6297C156.37 64.3497 156.489 63.9437 156.489 63.4117V53.3737H160.08ZM168.315 68.2837C167.167 68.2837 166.131 68.0387 165.207 67.5487C164.297 67.0587 163.576 66.3587 163.044 65.4487C162.526 64.5387 162.267 63.4747 162.267 62.2567C162.267 61.0527 162.533 59.9957 163.065 59.0857C163.597 58.1617 164.325 57.4547 165.249 56.9647C166.173 56.4747 167.209 56.2297 168.357 56.2297C169.505 56.2297 170.541 56.4747 171.465 56.9647C172.389 57.4547 173.117 58.1617 173.649 59.0857C174.181 59.9957 174.447 61.0527 174.447 62.2567C174.447 63.4607 174.174 64.5247 173.628 65.4487C173.096 66.3587 172.361 67.0587 171.423 67.5487C170.499 68.0387 169.463 68.2837 168.315 68.2837ZM168.315 65.1757C169.001 65.1757 169.582 64.9237 170.058 64.4197C170.548 63.9157 170.793 63.1947 170.793 62.2567C170.793 61.3187 170.555 60.5977 170.079 60.0937C169.617 59.5897 169.043 59.3377 168.357 59.3377C167.657 59.3377 167.076 59.5897 166.614 60.0937C166.152 60.5837 165.921 61.3047 165.921 62.2567C165.921 63.1947 166.145 63.9157 166.593 64.4197C167.055 64.9237 167.629 65.1757 168.315 65.1757ZM178.158 55.1797C177.528 55.1797 177.01 54.9977 176.604 54.6337C176.212 54.2557 176.016 53.7937 176.016 53.2477C176.016 52.6877 176.212 52.2257 176.604 51.8617C177.01 51.4837 177.528 51.2947 178.158 51.2947C178.774 51.2947 179.278 51.4837 179.67 51.8617C180.076 52.2257 180.279 52.6877 180.279 53.2477C180.279 53.7937 180.076 54.2557 179.67 54.6337C179.278 54.9977 178.774 55.1797 178.158 55.1797ZM179.943 56.3977V68.1157H176.352V56.3977H179.943ZM189.685 56.2717C191.057 56.2717 192.149 56.7197 192.961 57.6157C193.787 58.4977 194.2 59.7157 194.2 61.2697V68.1157H190.63V61.7527C190.63 60.9687 190.427 60.3597 190.021 59.9257C189.615 59.4917 189.069 59.2747 188.383 59.2747C187.697 59.2747 187.151 59.4917 186.745 59.9257C186.339 60.3597 186.136 60.9687 186.136 61.7527V68.1157H182.545V56.3977H186.136V57.9517C186.5 57.4337 186.99 57.0277 187.606 56.7337C188.222 56.4257 188.915 56.2717 189.685 56.2717ZM207.742 62.0677C207.742 62.4037 207.721 62.7537 207.679 63.1177H199.552C199.608 63.8457 199.839 64.4057 200.245 64.7977C200.665 65.1757 201.176 65.3647 201.778 65.3647C202.674 65.3647 203.297 64.9867 203.647 64.2307H207.469C207.273 65.0007 206.916 65.6937 206.398 66.3097C205.894 66.9257 205.257 67.4087 204.487 67.7587C203.717 68.1087 202.856 68.2837 201.904 68.2837C200.756 68.2837 199.734 68.0387 198.838 67.5487C197.942 67.0587 197.242 66.3587 196.738 65.4487C196.234 64.5387 195.982 63.4747 195.982 62.2567C195.982 61.0387 196.227 59.9747 196.717 59.0647C197.221 58.1547 197.921 57.4547 198.817 56.9647C199.713 56.4747 200.742 56.2297 201.904 56.2297C203.038 56.2297 204.046 56.4677 204.928 56.9437C205.81 57.4197 206.496 58.0987 206.986 58.9807C207.49 59.8627 207.742 60.8917 207.742 62.0677ZM204.067 61.1227C204.067 60.5067 203.857 60.0167 203.437 59.6527C203.017 59.2887 202.492 59.1067 201.862 59.1067C201.26 59.1067 200.749 59.2817 200.329 59.6317C199.923 59.9817 199.671 60.4787 199.573 61.1227H204.067ZM208.922 62.2357C208.922 61.0317 209.146 59.9747 209.594 59.0647C210.056 58.1547 210.679 57.4547 211.463 56.9647C212.247 56.4747 213.122 56.2297 214.088 56.2297C214.858 56.2297 215.558 56.3907 216.188 56.7127C216.832 57.0347 217.336 57.4687 217.7 58.0147V52.5757H221.291V68.1157H217.7V66.4357C217.364 66.9957 216.881 67.4437 216.251 67.7797C215.635 68.1157 214.914 68.2837 214.088 68.2837C213.122 68.2837 212.247 68.0387 211.463 67.5487C210.679 67.0447 210.056 66.3377 209.594 65.4277C209.146 64.5037 208.922 63.4397 208.922 62.2357ZM217.7 62.2567C217.7 61.3607 217.448 60.6537 216.944 60.1357C216.454 59.6177 215.852 59.3587 215.138 59.3587C214.424 59.3587 213.815 59.6177 213.311 60.1357C212.821 60.6397 212.576 61.3397 212.576 62.2357C212.576 63.1317 212.821 63.8457 213.311 64.3777C213.815 64.8957 214.424 65.1547 215.138 65.1547C215.852 65.1547 216.454 64.8957 216.944 64.3777C217.448 63.8597 217.7 63.1527 217.7 62.2567ZM237.579 53.3737V63.4117C237.579 64.9657 237.138 66.1627 236.256 67.0027C235.388 67.8427 234.212 68.2627 232.728 68.2627C231.174 68.2627 229.928 67.8217 228.99 66.9397C228.052 66.0577 227.583 64.8047 227.583 63.1807H231.153C231.153 63.7967 231.279 64.2657 231.531 64.5877C231.783 64.8957 232.147 65.0497 232.623 65.0497C233.057 65.0497 233.393 64.9097 233.631 64.6297C233.869 64.3497 233.988 63.9437 233.988 63.4117V53.3737H237.579ZM251.085 53.3737V56.2507H247.179V68.1157H243.588V56.2507H239.682V53.3737H251.085ZM252.278 60.7237C252.278 59.2677 252.593 57.9727 253.223 56.8387C253.853 55.6907 254.728 54.8017 255.848 54.1717C256.982 53.5277 258.263 53.2057 259.691 53.2057C261.441 53.2057 262.939 53.6677 264.185 54.5917C265.431 55.5157 266.264 56.7757 266.684 58.3717H262.736C262.442 57.7557 262.022 57.2867 261.476 56.9647C260.944 56.6427 260.335 56.4817 259.649 56.4817C258.543 56.4817 257.647 56.8667 256.961 57.6367C256.275 58.4067 255.932 59.4357 255.932 60.7237C255.932 62.0117 256.275 63.0407 256.961 63.8107C257.647 64.5807 258.543 64.9657 259.649 64.9657C260.335 64.9657 260.944 64.8047 261.476 64.4827C262.022 64.1607 262.442 63.6917 262.736 63.0757H266.684C266.264 64.6717 265.431 65.9317 264.185 66.8557C262.939 67.7657 261.441 68.2207 259.691 68.2207C258.263 68.2207 256.982 67.9057 255.848 67.2757C254.728 66.6317 253.853 65.7427 253.223 64.6087C252.593 63.4747 252.278 62.1797 252.278 60.7237ZM287.172 53.3737L281.943 68.1157H277.449L272.22 53.3737H276.042L279.696 64.5037L283.371 53.3737H287.172ZM288.064 60.7237C288.064 59.2677 288.379 57.9727 289.009 56.8387C289.639 55.6907 290.514 54.8017 291.634 54.1717C292.768 53.5277 294.049 53.2057 295.477 53.2057C297.227 53.2057 298.725 53.6677 299.971 54.5917C301.217 55.5157 302.05 56.7757 302.47 58.3717H298.522C298.228 57.7557 297.808 57.2867 297.262 56.9647C296.73 56.6427 296.121 56.4817 295.435 56.4817C294.329 56.4817 293.433 56.8667 292.747 57.6367C292.061 58.4067 291.718 59.4357 291.718 60.7237C291.718 62.0117 292.061 63.0407 292.747 63.8107C293.433 64.5807 294.329 64.9657 295.435 64.9657C296.121 64.9657 296.73 64.8047 297.262 64.4827C297.808 64.1607 298.228 63.6917 298.522 63.0757H302.47C302.05 64.6717 301.217 65.9317 299.971 66.8557C298.725 67.7657 297.227 68.2207 295.477 68.2207C294.049 68.2207 292.768 67.9057 291.634 67.2757C290.514 66.6317 289.639 65.7427 289.009 64.6087C288.379 63.4747 288.064 62.1797 288.064 60.7237Z" fill="white"/>
</g>
<g filter="url(#filter5_d_168_443)">
<rect x="28.4902" y="210.006" width="462" height="154.37" rx="7" fill="#171717"/>
<path d="M28.4902 217.006C28.4902 213.14 31.6242 210.006 35.4902 210.006H37.2307V364.376H35.4902C31.6242 364.376 28.4902 361.242 28.4902 357.376V217.006Z" fill="#5865F2"/>
<path d="M54.464 282.973C54.464 279.107 57.598 275.973 61.464 275.973H397.464C401.33 275.973 404.464 279.107 404.464 282.973V300.473C404.464 304.339 401.33 307.473 397.464 307.473H61.464C57.598 307.473 54.464 304.339 54.464 300.473V282.973Z" fill="#262626"/>
<path d="M54.464 330.61C54.464 326.744 57.598 323.61 61.464 323.61H134.964C138.83 323.61 141.964 326.744 141.964 330.61V341.11C141.964 344.976 138.83 348.11 134.964 348.11H61.464C57.598 348.11 54.464 344.976 54.464 341.11V330.61Z" fill="#353535"/>
<path d="M72.461 235.004V249.746H68.87V240.905L65.573 249.746H62.675L59.357 240.884V249.746H55.766V235.004H60.008L64.145 245.21L68.24 235.004H72.461ZM86.0893 243.698C86.0893 244.034 86.0683 244.384 86.0263 244.748H77.8993C77.9553 245.476 78.1863 246.036 78.5923 246.428C79.0123 246.806 79.5233 246.995 80.1253 246.995C81.0213 246.995 81.6443 246.617 81.9943 245.861H85.8163C85.6203 246.631 85.2633 247.324 84.7453 247.94C84.2413 248.556 83.6043 249.039 82.8343 249.389C82.0643 249.739 81.2033 249.914 80.2513 249.914C79.1033 249.914 78.0813 249.669 77.1853 249.179C76.2893 248.689 75.5893 247.989 75.0853 247.079C74.5813 246.169 74.3293 245.105 74.3293 243.887C74.3293 242.669 74.5743 241.605 75.0643 240.695C75.5683 239.785 76.2683 239.085 77.1643 238.595C78.0603 238.105 79.0893 237.86 80.2513 237.86C81.3853 237.86 82.3933 238.098 83.2753 238.574C84.1573 239.05 84.8433 239.729 85.3333 240.611C85.8373 241.493 86.0893 242.522 86.0893 243.698ZM82.4143 242.753C82.4143 242.137 82.2043 241.647 81.7843 241.283C81.3643 240.919 80.8393 240.737 80.2093 240.737C79.6073 240.737 79.0963 240.912 78.6763 241.262C78.2703 241.612 78.0183 242.109 77.9203 242.753H82.4143ZM102.936 237.902C104.392 237.902 105.547 238.343 106.401 239.225C107.269 240.107 107.703 241.332 107.703 242.9V249.746H104.133V243.383C104.133 242.627 103.93 242.046 103.524 241.64C103.132 241.22 102.586 241.01 101.886 241.01C101.186 241.01 100.633 241.22 100.227 241.64C99.8348 242.046 99.6388 242.627 99.6388 243.383V249.746H96.0688V243.383C96.0688 242.627 95.8658 242.046 95.4598 241.64C95.0678 241.22 94.5218 241.01 93.8218 241.01C93.1218 241.01 92.5688 241.22 92.1628 241.64C91.7708 242.046 91.5748 242.627 91.5748 243.383V249.746H87.9838V238.028H91.5748V239.498C91.9388 239.008 92.4148 238.623 93.0028 238.343C93.5908 238.049 94.2558 237.902 94.9978 237.902C95.8798 237.902 96.6638 238.091 97.3498 238.469C98.0498 238.847 98.5958 239.386 98.9878 240.086C99.3938 239.442 99.9468 238.917 100.647 238.511C101.347 238.105 102.11 237.902 102.936 237.902ZM113.805 239.687C114.141 239.141 114.624 238.7 115.254 238.364C115.884 238.028 116.605 237.86 117.417 237.86C118.383 237.86 119.258 238.105 120.042 238.595C120.826 239.085 121.442 239.785 121.89 240.695C122.352 241.605 122.583 242.662 122.583 243.866C122.583 245.07 122.352 246.134 121.89 247.058C121.442 247.968 120.826 248.675 120.042 249.179C119.258 249.669 118.383 249.914 117.417 249.914C116.591 249.914 115.87 249.753 115.254 249.431C114.638 249.095 114.155 248.654 113.805 248.108V249.746H110.214V234.206H113.805V239.687ZM118.929 243.866C118.929 242.97 118.677 242.27 118.173 241.766C117.683 241.248 117.074 240.989 116.346 240.989C115.632 240.989 115.023 241.248 114.519 241.766C114.029 242.284 113.784 242.991 113.784 243.887C113.784 244.783 114.029 245.49 114.519 246.008C115.023 246.526 115.632 246.785 116.346 246.785C117.06 246.785 117.669 246.526 118.173 246.008C118.677 245.476 118.929 244.762 118.929 243.866ZM135.513 243.698C135.513 244.034 135.492 244.384 135.45 244.748H127.323C127.379 245.476 127.61 246.036 128.016 246.428C128.436 246.806 128.947 246.995 129.549 246.995C130.445 246.995 131.068 246.617 131.418 245.861H135.24C135.044 246.631 134.687 247.324 134.169 247.94C133.665 248.556 133.028 249.039 132.258 249.389C131.488 249.739 130.627 249.914 129.675 249.914C128.527 249.914 127.505 249.669 126.609 249.179C125.713 248.689 125.013 247.989 124.509 247.079C124.005 246.169 123.753 245.105 123.753 243.887C123.753 242.669 123.998 241.605 124.488 240.695C124.992 239.785 125.692 239.085 126.588 238.595C127.484 238.105 128.513 237.86 129.675 237.86C130.809 237.86 131.817 238.098 132.699 238.574C133.581 239.05 134.267 239.729 134.757 240.611C135.261 241.493 135.513 242.522 135.513 243.698ZM131.838 242.753C131.838 242.137 131.628 241.647 131.208 241.283C130.788 240.919 130.263 240.737 129.633 240.737C129.031 240.737 128.52 240.912 128.1 241.262C127.694 241.612 127.442 242.109 127.344 242.753H131.838ZM140.999 239.981C141.419 239.337 141.944 238.833 142.574 238.469C143.204 238.091 143.904 237.902 144.674 237.902V241.703H143.687C142.791 241.703 142.119 241.899 141.671 242.291C141.223 242.669 140.999 243.341 140.999 244.307V249.746H137.408V238.028H140.999V239.981ZM154.431 246.974H159.135V249.746H150.84V235.004H154.431V246.974ZM171.894 243.698C171.894 244.034 171.873 244.384 171.831 244.748H163.704C163.76 245.476 163.991 246.036 164.397 246.428C164.817 246.806 165.328 246.995 165.93 246.995C166.826 246.995 167.449 246.617 167.799 245.861H171.621C171.425 246.631 171.068 247.324 170.55 247.94C170.046 248.556 169.409 249.039 168.639 249.389C167.869 249.739 167.008 249.914 166.056 249.914C164.908 249.914 163.886 249.669 162.99 249.179C162.094 248.689 161.394 247.989 160.89 247.079C160.386 246.169 160.134 245.105 160.134 243.887C160.134 242.669 160.379 241.605 160.869 240.695C161.373 239.785 162.073 239.085 162.969 238.595C163.865 238.105 164.894 237.86 166.056 237.86C167.19 237.86 168.198 238.098 169.08 238.574C169.962 239.05 170.648 239.729 171.138 240.611C171.642 241.493 171.894 242.522 171.894 243.698ZM168.219 242.753C168.219 242.137 168.009 241.647 167.589 241.283C167.169 240.919 166.644 240.737 166.014 240.737C165.412 240.737 164.901 240.912 164.481 241.262C164.075 241.612 163.823 242.109 163.725 242.753H168.219ZM179.668 241.01H177.736V249.746H174.145V241.01H172.843V238.028H174.145V237.692C174.145 236.25 174.558 235.158 175.384 234.416C176.21 233.66 177.421 233.282 179.017 233.282C179.283 233.282 179.479 233.289 179.605 233.303V236.348C178.919 236.306 178.436 236.404 178.156 236.642C177.876 236.88 177.736 237.307 177.736 237.923V238.028H179.668V241.01ZM187.887 246.701V249.746H186.06C184.758 249.746 183.743 249.431 183.015 248.801C182.287 248.157 181.923 247.114 181.923 245.672V241.01H180.495V238.028H181.923V235.172H185.514V238.028H187.866V241.01H185.514V245.714C185.514 246.064 185.598 246.316 185.766 246.47C185.934 246.624 186.214 246.701 186.606 246.701H187.887ZM203.577 235.004V245.042C203.577 246.596 203.136 247.793 202.254 248.633C201.386 249.473 200.21 249.893 198.726 249.893C197.172 249.893 195.926 249.452 194.988 248.57C194.05 247.688 193.581 246.435 193.581 244.811H197.151C197.151 245.427 197.277 245.896 197.529 246.218C197.781 246.526 198.145 246.68 198.621 246.68C199.055 246.68 199.391 246.54 199.629 246.26C199.867 245.98 199.986 245.574 199.986 245.042V235.004H203.577ZM217.083 235.004V237.881H213.177V249.746H209.586V237.881H205.68V235.004H217.083ZM218.276 242.354C218.276 240.898 218.591 239.603 219.221 238.469C219.851 237.321 220.726 236.432 221.846 235.802C222.98 235.158 224.261 234.836 225.689 234.836C227.439 234.836 228.937 235.298 230.183 236.222C231.429 237.146 232.262 238.406 232.682 240.002H228.734C228.44 239.386 228.02 238.917 227.474 238.595C226.942 238.273 226.333 238.112 225.647 238.112C224.541 238.112 223.645 238.497 222.959 239.267C222.273 240.037 221.93 241.066 221.93 242.354C221.93 243.642 222.273 244.671 222.959 245.441C223.645 246.211 224.541 246.596 225.647 246.596C226.333 246.596 226.942 246.435 227.474 246.113C228.02 245.791 228.44 245.322 228.734 244.706H232.682C232.262 246.302 231.429 247.562 230.183 248.486C228.937 249.396 227.439 249.851 225.689 249.851C224.261 249.851 222.98 249.536 221.846 248.906C220.726 248.262 219.851 247.373 219.221 246.239C218.591 245.105 218.276 243.81 218.276 242.354ZM253.17 235.004L247.941 249.746H243.447L238.218 235.004H242.04L245.694 246.134L249.369 235.004H253.17ZM254.062 242.354C254.062 240.898 254.377 239.603 255.007 238.469C255.637 237.321 256.512 236.432 257.632 235.802C258.766 235.158 260.047 234.836 261.475 234.836C263.225 234.836 264.723 235.298 265.969 236.222C267.215 237.146 268.048 238.406 268.468 240.002H264.52C264.226 239.386 263.806 238.917 263.26 238.595C262.728 238.273 262.119 238.112 261.433 238.112C260.327 238.112 259.431 238.497 258.745 239.267C258.059 240.037 257.716 241.066 257.716 242.354C257.716 243.642 258.059 244.671 258.745 245.441C259.431 246.211 260.327 246.596 261.433 246.596C262.119 246.596 262.728 246.435 263.26 246.113C263.806 245.791 264.226 245.322 264.52 244.706H268.468C268.048 246.302 267.215 247.562 265.969 248.486C264.723 249.396 263.225 249.851 261.475 249.851C260.047 249.851 258.766 249.536 257.632 248.906C256.512 248.262 255.637 247.373 255.007 246.239C254.377 245.105 254.062 243.81 254.062 242.354Z" fill="white"/>
</g>
<defs>
<filter id="filter0_d_168_443" x="774.18" y="242.811" width="210.31" height="80.76" filterUnits="userSpaceOnUse" color-interpolation-filters="sRGB">
<feFlood flood-opacity="0" result="BackgroundImageFix"/>
<feColorMatrix in="SourceAlpha" type="matrix" values="0 0 0 0 0 0 0 0 0 0 0 0 0 0 0 0 0 0 127 0" result="hardAlpha"/>
<feOffset dx="-4" dy="-4"/>
<feGaussianBlur stdDeviation="4"/>
<feComposite in2="hardAlpha" operator="out"/>
<feColorMatrix type="matrix" values="0 0 0 0 0 0 0 0 0 0 0 0 0 0 0 0 0 0 0.5 0"/>
<feBlend mode="normal" in2="BackgroundImageFix" result="effect1_dropShadow_168_443"/>
<feBlend mode="normal" in="SourceGraphic" in2="effect1_dropShadow_168_443" result="shape"/>
</filter>
<filter id="filter1_d_168_443" x="561.738" y="242.811" width="210.31" height="80.76" filterUnits="userSpaceOnUse" color-interpolation-filters="sRGB">
<feFlood flood-opacity="0" result="BackgroundImageFix"/>
<feColorMatrix in="SourceAlpha" type="matrix" values="0 0 0 0 0 0 0 0 0 0 0 0 0 0 0 0 0 0 127 0" result="hardAlpha"/>
<feOffset dx="-4" dy="-4"/>
<feGaussianBlur stdDeviation="4"/>
<feComposite in2="hardAlpha" operator="out"/>
<feColorMatrix type="matrix" values="0 0 0 0 0 0 0 0 0 0 0 0 0 0 0 0 0 0 0.5 0"/>
<feBlend mode="normal" in2="BackgroundImageFix" result="effect1_dropShadow_168_443"/>
<feBlend mode="normal" in="SourceGraphic" in2="effect1_dropShadow_168_443" result="shape"/>
</filter>
<filter id="filter2_d_168_443" x="774.18" y="61.1812" width="210.31" height="80.7599" filterUnits="userSpaceOnUse" color-interpolation-filters="sRGB">
<feFlood flood-opacity="0" result="BackgroundImageFix"/>
<feColorMatrix in="SourceAlpha" type="matrix" values="0 0 0 0 0 0 0 0 0 0 0 0 0 0 0 0 0 0 127 0" result="hardAlpha"/>
<feOffset dx="-4" dy="-4"/>
<feGaussianBlur stdDeviation="4"/>
<feComposite in2="hardAlpha" operator="out"/>
<feColorMatrix type="matrix" values="0 0 0 0 0 0 0 0 0 0 0 0 0 0 0 0 0 0 0.5 0"/>
<feBlend mode="normal" in2="BackgroundImageFix" result="effect1_dropShadow_168_443"/>
<feBlend mode="normal" in="SourceGraphic" in2="effect1_dropShadow_168_443" result="shape"/>
</filter>
<filter id="filter3_d_168_443" x="561.738" y="61.1813" width="210.31" height="80.76" filterUnits="userSpaceOnUse" color-interpolation-filters="sRGB">
<feFlood flood-opacity="0" result="BackgroundImageFix"/>
<feColorMatrix in="SourceAlpha" type="matrix" values="0 0 0 0 0 0 0 0 0 0 0 0 0 0 0 0 0 0 127 0" result="hardAlpha"/>
<feOffset dx="-4" dy="-4"/>
<feGaussianBlur stdDeviation="4"/>
<feComposite in2="hardAlpha" operator="out"/>
<feColorMatrix type="matrix" values="0 0 0 0 0 0 0 0 0 0 0 0 0 0 0 0 0 0 0.5 0"/>
<feBlend mode="normal" in2="BackgroundImageFix" result="effect1_dropShadow_168_443"/>
<feBlend mode="normal" in="SourceGraphic" in2="effect1_dropShadow_168_443" result="shape"/>
</filter>
<filter id="filter4_d_168_443" x="16.4902" y="16.3762" width="478" height="170.37" filterUnits="userSpaceOnUse" color-interpolation-filters="sRGB">
<feFlood flood-opacity="0" result="BackgroundImageFix"/>
<feColorMatrix in="SourceAlpha" type="matrix" values="0 0 0 0 0 0 0 0 0 0 0 0 0 0 0 0 0 0 127 0" result="hardAlpha"/>
<feOffset dx="-4" dy="-4"/>
<feGaussianBlur stdDeviation="4"/>
<feComposite in2="hardAlpha" operator="out"/>
<feColorMatrix type="matrix" values="0 0 0 0 0 0 0 0 0 0 0 0 0 0 0 0 0 0 0.5 0"/>
<feBlend mode="normal" in2="BackgroundImageFix" result="effect1_dropShadow_168_443"/>
<feBlend mode="normal" in="SourceGraphic" in2="effect1_dropShadow_168_443" result="shape"/>
</filter>
<filter id="filter5_d_168_443" x="16.4902" y="198.006" width="478" height="170.37" filterUnits="userSpaceOnUse" color-interpolation-filters="sRGB">
<feFlood flood-opacity="0" result="BackgroundImageFix"/>
<feColorMatrix in="SourceAlpha" type="matrix" values="0 0 0 0 0 0 0 0 0 0 0 0 0 0 0 0 0 0 127 0" result="hardAlpha"/>
<feOffset dx="-4" dy="-4"/>
<feGaussianBlur stdDeviation="4"/>
<feComposite in2="hardAlpha" operator="out"/>
<feColorMatrix type="matrix" values="0 0 0 0 0 0 0 0 0 0 0 0 0 0 0 0 0 0 0.5 0"/>
<feBlend mode="normal" in2="BackgroundImageFix" result="effect1_dropShadow_168_443"/>
<feBlend mode="normal" in="SourceGraphic" in2="effect1_dropShadow_168_443" result="shape"/>
</filter>
</defs>
</svg>
