<svg width="1009" height="393" viewBox="0 0 1009 393" fill="none" xmlns="http://www.w3.org/2000/svg">
<rect x="0.490173" y="0.462158" width="1008" height="392" fill="#262626"/>
<g filter="url(#filter0_d_168_443)">
<rect x="486.293" y="42.8476" width="325.643" height="178.126" rx="7" fill="#171717"/>
<path d="M486.293 49.8476C486.293 45.9816 489.427 42.8476 493.293 42.8476H495.034V220.969H493.293C489.427 220.969 486.293 217.835 486.293 213.969V49.8476Z" fill="#F1C40F"/>
<rect x="512.267" y="107.399" width="160.826" height="31.2799" rx="7" fill="#262626"/>
<rect x="512.267" y="145.405" width="116.606" height="31.2799" rx="7" fill="#262626"/>
<path d="M524.174 67.8451V70.7221H520.268V82.5871H516.677V70.7221H512.771V67.8451H524.174ZM527.782 69.6511C527.152 69.6511 526.634 69.4691 526.228 69.1051C525.836 68.7271 525.64 68.2651 525.64 67.7191C525.64 67.1591 525.836 66.6971 526.228 66.3331C526.634 65.9551 527.152 65.7661 527.782 65.7661C528.398 65.7661 528.902 65.9551 529.294 66.3331C529.7 66.6971 529.903 67.1591 529.903 67.7191C529.903 68.2651 529.7 68.7271 529.294 69.1051C528.902 69.4691 528.398 69.6511 527.782 69.6511ZM529.567 70.8691V82.5871H525.976V70.8691H529.567ZM531.456 76.7281C531.456 75.5101 531.701 74.4461 532.191 73.5361C532.695 72.6261 533.388 71.9261 534.27 71.4361C535.166 70.9461 536.188 70.7011 537.336 70.7011C538.806 70.7011 540.031 71.0861 541.011 71.8561C542.005 72.6261 542.656 73.7111 542.964 75.1111H539.142C538.82 74.2151 538.197 73.7671 537.273 73.7671C536.615 73.7671 536.09 74.0261 535.698 74.5441C535.306 75.0481 535.11 75.7761 535.11 76.7281C535.11 77.6801 535.306 78.4151 535.698 78.9331C536.09 79.4371 536.615 79.6891 537.273 79.6891C538.197 79.6891 538.82 79.2411 539.142 78.3451H542.964C542.656 79.7171 542.005 80.7951 541.011 81.5791C540.017 82.3631 538.792 82.7551 537.336 82.7551C536.188 82.7551 535.166 82.5101 534.27 82.0201C533.388 81.5301 532.695 80.8301 532.191 79.9201C531.701 79.0101 531.456 77.9461 531.456 76.7281ZM552.046 82.5871L548.476 77.6731V82.5871H544.885V67.0471H548.476V75.6361L552.025 70.8691H556.456L551.584 76.7491L556.498 82.5871H552.046ZM568.912 76.5391C568.912 76.8751 568.891 77.2251 568.849 77.5891H560.722C560.778 78.3171 561.009 78.8771 561.415 79.2691C561.835 79.6471 562.346 79.8361 562.948 79.8361C563.844 79.8361 564.467 79.4581 564.817 78.7021H568.639C568.443 79.4721 568.086 80.1651 567.568 80.7811C567.064 81.3971 566.427 81.8801 565.657 82.2301C564.887 82.5801 564.026 82.7551 563.074 82.7551C561.926 82.7551 560.904 82.5101 560.008 82.0201C559.112 81.5301 558.412 80.8301 557.908 79.9201C557.404 79.0101 557.152 77.9461 557.152 76.7281C557.152 75.5101 557.397 74.4461 557.887 73.5361C558.391 72.6261 559.091 71.9261 559.987 71.4361C560.883 70.9461 561.912 70.7011 563.074 70.7011C564.208 70.7011 565.216 70.9391 566.098 71.4151C566.98 71.8911 567.666 72.5701 568.156 73.4521C568.66 74.3341 568.912 75.3631 568.912 76.5391ZM565.237 75.5941C565.237 74.9781 565.027 74.4881 564.607 74.1241C564.187 73.7601 563.662 73.5781 563.032 73.5781C562.43 73.5781 561.919 73.7531 561.499 74.1031C561.093 74.4531 560.841 74.9501 560.743 75.5941H565.237ZM577.338 79.5421V82.5871H575.511C574.209 82.5871 573.194 82.2721 572.466 81.6421C571.738 80.9981 571.374 79.9551 571.374 78.5131V73.8511H569.946V70.8691H571.374V68.0131H574.965V70.8691H577.317V73.8511H574.965V78.5551C574.965 78.9051 575.049 79.1571 575.217 79.3111C575.385 79.4651 575.665 79.5421 576.057 79.5421H577.338ZM597.501 73.3891L596.913 76.1401H599.433V79.3741H596.22L595.527 82.5871H592.167L592.86 79.3741H589.374L588.681 82.5871H585.321L586.014 79.3741H582.906V76.1401H586.707L587.295 73.3891H584.25V70.1551H587.967L588.639 67.0471H591.999L591.327 70.1551H594.813L595.485 67.0471H598.845L598.173 70.1551H600.777V73.3891H597.501ZM594.141 73.3891H590.655L590.067 76.1401H593.553L594.141 73.3891ZM602.043 70.5961V67.2571H607.86V82.5871H604.122V70.5961H602.043Z" fill="white"/>
</g>
<path d="M353.49 185.642H487.49" stroke="#F1C40F" stroke-width="5"/>
<g filter="url(#filter1_d_168_443)">
<rect x="570.57" y="107.399" width="325.643" height="178.126" rx="7" fill="#171717"/>
<path d="M570.57 114.399C570.57 110.533 573.704 107.399 577.57 107.399H579.311V285.52H577.57C573.704 285.52 570.57 282.386 570.57 278.52V114.399Z" fill="#E67E22"/>
<rect x="596.544" y="171.95" width="160.826" height="31.2799" rx="7" fill="#262626"/>
<rect x="596.544" y="209.957" width="116.606" height="31.2799" rx="7" fill="#262626"/>
<path d="M608.451 132.397V135.274H604.545V147.139H600.954V135.274H597.048V132.397H608.451ZM612.059 134.203C611.429 134.203 610.911 134.021 610.505 133.657C610.113 133.279 609.917 132.817 609.917 132.271C609.917 131.711 610.113 131.249 610.505 130.885C610.911 130.507 611.429 130.318 612.059 130.318C612.675 130.318 613.179 130.507 613.571 130.885C613.977 131.249 614.18 131.711 614.18 132.271C614.18 132.817 613.977 133.279 613.571 133.657C613.179 134.021 612.675 134.203 612.059 134.203ZM613.844 135.421V147.139H610.253V135.421H613.844ZM615.733 141.28C615.733 140.062 615.978 138.998 616.468 138.088C616.972 137.178 617.665 136.478 618.547 135.988C619.443 135.498 620.465 135.253 621.613 135.253C623.083 135.253 624.308 135.638 625.288 136.408C626.282 137.178 626.933 138.263 627.241 139.663H623.419C623.097 138.767 622.474 138.319 621.55 138.319C620.892 138.319 620.367 138.578 619.975 139.096C619.583 139.6 619.387 140.328 619.387 141.28C619.387 142.232 619.583 142.967 619.975 143.485C620.367 143.989 620.892 144.241 621.55 144.241C622.474 144.241 623.097 143.793 623.419 142.897H627.241C626.933 144.269 626.282 145.347 625.288 146.131C624.294 146.915 623.069 147.307 621.613 147.307C620.465 147.307 619.443 147.062 618.547 146.572C617.665 146.082 616.972 145.382 616.468 144.472C615.978 143.562 615.733 142.498 615.733 141.28ZM636.323 147.139L632.753 142.225V147.139H629.162V131.599H632.753V140.188L636.302 135.421H640.733L635.861 141.301L640.775 147.139H636.323ZM653.189 141.091C653.189 141.427 653.168 141.777 653.126 142.141H644.999C645.055 142.869 645.286 143.429 645.692 143.821C646.112 144.199 646.623 144.388 647.225 144.388C648.121 144.388 648.744 144.01 649.094 143.254H652.916C652.72 144.024 652.363 144.717 651.845 145.333C651.341 145.949 650.704 146.432 649.934 146.782C649.164 147.132 648.303 147.307 647.351 147.307C646.203 147.307 645.181 147.062 644.285 146.572C643.389 146.082 642.689 145.382 642.185 144.472C641.681 143.562 641.429 142.498 641.429 141.28C641.429 140.062 641.674 138.998 642.164 138.088C642.668 137.178 643.368 136.478 644.264 135.988C645.16 135.498 646.189 135.253 647.351 135.253C648.485 135.253 649.493 135.491 650.375 135.967C651.257 136.443 651.943 137.122 652.433 138.004C652.937 138.886 653.189 139.915 653.189 141.091ZM649.514 140.146C649.514 139.53 649.304 139.04 648.884 138.676C648.464 138.312 647.939 138.13 647.309 138.13C646.707 138.13 646.196 138.305 645.776 138.655C645.37 139.005 645.118 139.502 645.02 140.146H649.514ZM661.614 144.094V147.139H659.787C658.485 147.139 657.47 146.824 656.742 146.194C656.014 145.55 655.65 144.507 655.65 143.065V138.403H654.222V135.421H655.65V132.565H659.241V135.421H661.593V138.403H659.241V143.107C659.241 143.457 659.325 143.709 659.493 143.863C659.661 144.017 659.941 144.094 660.333 144.094H661.614ZM681.778 137.941L681.19 140.692H683.71V143.926H680.497L679.804 147.139H676.444L677.137 143.926H673.651L672.958 147.139H669.598L670.291 143.926H667.183V140.692H670.984L671.572 137.941H668.527V134.707H672.244L672.916 131.599H676.276L675.604 134.707H679.09L679.762 131.599H683.122L682.45 134.707H685.054V137.941H681.778ZM678.418 137.941H674.932L674.344 140.692H677.83L678.418 137.941ZM686.572 144.262C687.048 143.884 687.265 143.709 687.223 143.737C688.595 142.603 689.673 141.672 690.457 140.944C691.255 140.216 691.927 139.453 692.473 138.655C693.019 137.857 693.292 137.08 693.292 136.324C693.292 135.75 693.159 135.302 692.893 134.98C692.627 134.658 692.228 134.497 691.696 134.497C691.164 134.497 690.744 134.7 690.436 135.106C690.142 135.498 689.995 136.058 689.995 136.786H686.53C686.558 135.596 686.81 134.602 687.286 133.804C687.776 133.006 688.413 132.418 689.197 132.04C689.995 131.662 690.877 131.473 691.843 131.473C693.509 131.473 694.762 131.9 695.602 132.754C696.456 133.608 696.883 134.721 696.883 136.093C696.883 137.591 696.372 138.984 695.35 140.272C694.328 141.546 693.026 142.792 691.444 144.01H697.114V146.929H686.572V144.262Z" fill="white"/>
</g>
<path d="M354.623 252.642H571.623" stroke="#E67E22" stroke-width="5"/>
<g filter="url(#filter2_d_168_443)">
<rect x="654.847" y="171.95" width="325.643" height="178.126" rx="7" fill="#171717"/>
<path d="M654.847 178.95C654.847 175.084 657.981 171.95 661.847 171.95H663.588V350.072H661.847C657.981 350.072 654.847 346.938 654.847 343.072V178.95Z" fill="#ED4245"/>
<rect x="680.821" y="236.502" width="160.826" height="31.2799" rx="7" fill="#262626"/>
<rect x="680.821" y="274.508" width="116.606" height="31.2799" rx="7" fill="#262626"/>
<path d="M692.728 196.948V199.825H688.822V211.69H685.231V199.825H681.325V196.948H692.728ZM696.336 198.754C695.706 198.754 695.188 198.572 694.782 198.208C694.39 197.83 694.194 197.368 694.194 196.822C694.194 196.262 694.39 195.8 694.782 195.436C695.188 195.058 695.706 194.869 696.336 194.869C696.952 194.869 697.456 195.058 697.848 195.436C698.254 195.8 698.457 196.262 698.457 196.822C698.457 197.368 698.254 197.83 697.848 198.208C697.456 198.572 696.952 198.754 696.336 198.754ZM698.121 199.972V211.69H694.53V199.972H698.121ZM700.01 205.831C700.01 204.613 700.255 203.549 700.745 202.639C701.249 201.729 701.942 201.029 702.824 200.539C703.72 200.049 704.742 199.804 705.89 199.804C707.36 199.804 708.585 200.189 709.565 200.959C710.559 201.729 711.21 202.814 711.518 204.214H707.696C707.374 203.318 706.751 202.87 705.827 202.87C705.169 202.87 704.644 203.129 704.252 203.647C703.86 204.151 703.664 204.879 703.664 205.831C703.664 206.783 703.86 207.518 704.252 208.036C704.644 208.54 705.169 208.792 705.827 208.792C706.751 208.792 707.374 208.344 707.696 207.448H711.518C711.21 208.82 710.559 209.898 709.565 210.682C708.571 211.466 707.346 211.858 705.89 211.858C704.742 211.858 703.72 211.613 702.824 211.123C701.942 210.633 701.249 209.933 700.745 209.023C700.255 208.113 700.01 207.049 700.01 205.831ZM720.599 211.69L717.029 206.776V211.69H713.438V196.15H717.029V204.739L720.578 199.972H725.009L720.137 205.852L725.051 211.69H720.599ZM737.466 205.642C737.466 205.978 737.445 206.328 737.403 206.692H729.276C729.332 207.42 729.563 207.98 729.969 208.372C730.389 208.75 730.9 208.939 731.502 208.939C732.398 208.939 733.021 208.561 733.371 207.805H737.193C736.997 208.575 736.64 209.268 736.122 209.884C735.618 210.5 734.981 210.983 734.211 211.333C733.441 211.683 732.58 211.858 731.628 211.858C730.48 211.858 729.458 211.613 728.562 211.123C727.666 210.633 726.966 209.933 726.462 209.023C725.958 208.113 725.706 207.049 725.706 205.831C725.706 204.613 725.951 203.549 726.441 202.639C726.945 201.729 727.645 201.029 728.541 200.539C729.437 200.049 730.466 199.804 731.628 199.804C732.762 199.804 733.77 200.042 734.652 200.518C735.534 200.994 736.22 201.673 736.71 202.555C737.214 203.437 737.466 204.466 737.466 205.642ZM733.791 204.697C733.791 204.081 733.581 203.591 733.161 203.227C732.741 202.863 732.216 202.681 731.586 202.681C730.984 202.681 730.473 202.856 730.053 203.206C729.647 203.556 729.395 204.053 729.297 204.697H733.791ZM745.891 208.645V211.69H744.064C742.762 211.69 741.747 211.375 741.019 210.745C740.291 210.101 739.927 209.058 739.927 207.616V202.954H738.499V199.972H739.927V197.116H743.518V199.972H745.87V202.954H743.518V207.658C743.518 208.008 743.602 208.26 743.77 208.414C743.938 208.568 744.218 208.645 744.61 208.645H745.891ZM766.055 202.492L765.467 205.243H767.987V208.477H764.774L764.081 211.69H760.721L761.414 208.477H757.928L757.235 211.69H753.875L754.568 208.477H751.46V205.243H755.261L755.849 202.492H752.804V199.258H756.521L757.193 196.15H760.553L759.881 199.258H763.367L764.039 196.15H767.399L766.727 199.258H769.331V202.492H766.055ZM762.695 202.492H759.209L758.621 205.243H762.107L762.695 202.492ZM771.101 200.686C771.157 199.188 771.647 198.033 772.571 197.221C773.495 196.409 774.748 196.003 776.33 196.003C777.38 196.003 778.276 196.185 779.018 196.549C779.774 196.913 780.341 197.41 780.719 198.04C781.111 198.67 781.307 199.377 781.307 200.161C781.307 201.085 781.076 201.841 780.614 202.429C780.152 203.003 779.613 203.395 778.997 203.605V203.689C779.795 203.955 780.425 204.396 780.887 205.012C781.349 205.628 781.58 206.419 781.58 207.385C781.58 208.253 781.377 209.023 780.971 209.695C780.579 210.353 779.998 210.871 779.228 211.249C778.472 211.627 777.569 211.816 776.519 211.816C774.839 211.816 773.495 211.403 772.487 210.577C771.493 209.751 770.968 208.505 770.912 206.839H774.398C774.412 207.455 774.587 207.945 774.923 208.309C775.259 208.659 775.749 208.834 776.393 208.834C776.939 208.834 777.359 208.68 777.653 208.372C777.961 208.05 778.115 207.63 778.115 207.112C778.115 206.44 777.898 205.957 777.464 205.663C777.044 205.355 776.365 205.201 775.427 205.201H774.755V202.282H775.427C776.141 202.282 776.715 202.163 777.149 201.925C777.597 201.673 777.821 201.232 777.821 200.602C777.821 200.098 777.681 199.706 777.401 199.426C777.121 199.146 776.736 199.006 776.246 199.006C775.714 199.006 775.315 199.167 775.049 199.489C774.797 199.811 774.65 200.21 774.608 200.686H771.101Z" fill="white"/>
</g>
<path d="M353.49 318.642H655.49" stroke="#ED4245" stroke-width="5"/>
<g filter="url(#filter3_d_168_443)">
<rect x="28.4902" y="28.4622" width="325.643" height="336" rx="7" fill="#171717"/>
<path d="M28.4902 35.4622C28.4902 31.5962 31.6242 28.4622 35.4902 28.4622H37.2307V364.453H35.4902C31.6242 364.453 28.4902 361.319 28.4902 357.453V35.4622Z" fill="#8000FF"/>
<rect x="54.4641" y="93.0136" width="160.826" height="31.2799" rx="7" fill="#262626"/>
<rect x="54.4641" y="131.02" width="116.606" height="31.2799" rx="7" fill="#262626"/>
<rect x="54.4641" y="191.728" width="182.227" height="31.2799" rx="7" fill="#262626"/>
<rect x="54.4641" y="229.734" width="241.501" height="31.2799" rx="7" fill="#262626"/>
<rect x="54.4641" y="290.442" width="116.606" height="31.2799" rx="7" fill="#262626"/>
<path d="M66.3711 53.4597V56.3367H62.4651V68.2017H58.8741V56.3367H54.9681V53.4597H66.3711ZM69.9793 55.2657C69.3493 55.2657 68.8313 55.0837 68.4253 54.7197C68.0333 54.3417 67.8373 53.8797 67.8373 53.3337C67.8373 52.7737 68.0333 52.3117 68.4253 51.9477C68.8313 51.5697 69.3493 51.3807 69.9793 51.3807C70.5953 51.3807 71.0993 51.5697 71.4913 51.9477C71.8973 52.3117 72.1003 52.7737 72.1003 53.3337C72.1003 53.8797 71.8973 54.3417 71.4913 54.7197C71.0993 55.0837 70.5953 55.2657 69.9793 55.2657ZM71.7643 56.4837V68.2017H68.1733V56.4837H71.7643ZM73.6526 62.3427C73.6526 61.1247 73.8976 60.0607 74.3876 59.1507C74.8916 58.2407 75.5846 57.5407 76.4666 57.0507C77.3626 56.5607 78.3846 56.3157 79.5326 56.3157C81.0026 56.3157 82.2276 56.7007 83.2076 57.4707C84.2016 58.2407 84.8526 59.3257 85.1606 60.7257H81.3386C81.0166 59.8297 80.3936 59.3817 79.4696 59.3817C78.8116 59.3817 78.2866 59.6407 77.8946 60.1587C77.5026 60.6627 77.3066 61.3907 77.3066 62.3427C77.3066 63.2947 77.5026 64.0297 77.8946 64.5477C78.2866 65.0517 78.8116 65.3037 79.4696 65.3037C80.3936 65.3037 81.0166 64.8557 81.3386 63.9597H85.1606C84.8526 65.3317 84.2016 66.4097 83.2076 67.1937C82.2136 67.9777 80.9886 68.3697 79.5326 68.3697C78.3846 68.3697 77.3626 68.1247 76.4666 67.6347C75.5846 67.1447 74.8916 66.4447 74.3876 65.5347C73.8976 64.6247 73.6526 63.5607 73.6526 62.3427ZM94.2425 68.2017L90.6725 63.2877V68.2017H87.0815V52.6617H90.6725V61.2507L94.2215 56.4837H98.6525L93.7805 62.3637L98.6945 68.2017H94.2425ZM111.109 62.1537C111.109 62.4897 111.088 62.8397 111.046 63.2037H102.919C102.975 63.9317 103.206 64.4917 103.612 64.8837C104.032 65.2617 104.543 65.4507 105.145 65.4507C106.041 65.4507 106.664 65.0727 107.014 64.3167H110.836C110.64 65.0867 110.283 65.7797 109.765 66.3957C109.261 67.0117 108.624 67.4947 107.854 67.8447C107.084 68.1947 106.223 68.3697 105.271 68.3697C104.123 68.3697 103.101 68.1247 102.205 67.6347C101.309 67.1447 100.609 66.4447 100.105 65.5347C99.6009 64.6247 99.3489 63.5607 99.3489 62.3427C99.3489 61.1247 99.5939 60.0607 100.084 59.1507C100.588 58.2407 101.288 57.5407 102.184 57.0507C103.08 56.5607 104.109 56.3157 105.271 56.3157C106.405 56.3157 107.413 56.5537 108.295 57.0297C109.177 57.5057 109.863 58.1847 110.353 59.0667C110.857 59.9487 111.109 60.9777 111.109 62.1537ZM107.434 61.2087C107.434 60.5927 107.224 60.1027 106.804 59.7387C106.384 59.3747 105.859 59.1927 105.229 59.1927C104.627 59.1927 104.116 59.3677 103.696 59.7177C103.29 60.0677 103.038 60.5647 102.94 61.2087H107.434ZM119.534 65.1567V68.2017H117.707C116.405 68.2017 115.39 67.8867 114.662 67.2567C113.934 66.6127 113.57 65.5697 113.57 64.1277V59.4657H112.142V56.4837H113.57V53.6277H117.161V56.4837H119.513V59.4657H117.161V64.1697C117.161 64.5197 117.245 64.7717 117.413 64.9257C117.581 65.0797 117.861 65.1567 118.253 65.1567H119.534ZM137.22 58.2057C137.22 59.0597 137.024 59.8437 136.632 60.5577C136.24 61.2577 135.638 61.8247 134.826 62.2587C134.014 62.6927 133.006 62.9097 131.802 62.9097H129.576V68.2017H125.985V53.4597H131.802C132.978 53.4597 133.972 53.6627 134.784 54.0687C135.596 54.4747 136.205 55.0347 136.611 55.7487C137.017 56.4627 137.22 57.2817 137.22 58.2057ZM131.529 60.0537C132.215 60.0537 132.726 59.8927 133.062 59.5707C133.398 59.2487 133.566 58.7937 133.566 58.2057C133.566 57.6177 133.398 57.1627 133.062 56.8407C132.726 56.5187 132.215 56.3577 131.529 56.3577H129.576V60.0537H131.529ZM138.375 62.3217C138.375 61.1177 138.599 60.0607 139.047 59.1507C139.509 58.2407 140.132 57.5407 140.916 57.0507C141.7 56.5607 142.575 56.3157 143.541 56.3157C144.367 56.3157 145.088 56.4837 145.704 56.8197C146.334 57.1557 146.817 57.5967 147.153 58.1427V56.4837H150.744V68.2017H147.153V66.5427C146.803 67.0887 146.313 67.5297 145.683 67.8657C145.067 68.2017 144.346 68.3697 143.52 68.3697C142.568 68.3697 141.7 68.1247 140.916 67.6347C140.132 67.1307 139.509 66.4237 139.047 65.5137C138.599 64.5897 138.375 63.5257 138.375 62.3217ZM147.153 62.3427C147.153 61.4467 146.901 60.7397 146.397 60.2217C145.907 59.7037 145.305 59.4447 144.591 59.4447C143.877 59.4447 143.268 59.7037 142.764 60.2217C142.274 60.7257 142.029 61.4257 142.029 62.3217C142.029 63.2177 142.274 63.9317 142.764 64.4637C143.268 64.9817 143.877 65.2407 144.591 65.2407C145.305 65.2407 145.907 64.9817 146.397 64.4637C146.901 63.9457 147.153 63.2387 147.153 62.3427ZM160.482 56.3577C161.854 56.3577 162.946 56.8057 163.758 57.7017C164.584 58.5837 164.997 59.8017 164.997 61.3557V68.2017H161.427V61.8387C161.427 61.0547 161.224 60.4457 160.818 60.0117C160.412 59.5777 159.866 59.3607 159.18 59.3607C158.494 59.3607 157.948 59.5777 157.542 60.0117C157.136 60.4457 156.933 61.0547 156.933 61.8387V68.2017H153.342V56.4837H156.933V58.0377C157.297 57.5197 157.787 57.1137 158.403 56.8197C159.019 56.5117 159.712 56.3577 160.482 56.3577ZM178.539 62.1537C178.539 62.4897 178.518 62.8397 178.476 63.2037H170.349C170.405 63.9317 170.636 64.4917 171.042 64.8837C171.462 65.2617 171.973 65.4507 172.575 65.4507C173.471 65.4507 174.094 65.0727 174.444 64.3167H178.266C178.07 65.0867 177.713 65.7797 177.195 66.3957C176.691 67.0117 176.054 67.4947 175.284 67.8447C174.514 68.1947 173.653 68.3697 172.701 68.3697C171.553 68.3697 170.531 68.1247 169.635 67.6347C168.739 67.1447 168.039 66.4447 167.535 65.5347C167.031 64.6247 166.779 63.5607 166.779 62.3427C166.779 61.1247 167.024 60.0607 167.514 59.1507C168.018 58.2407 168.718 57.5407 169.614 57.0507C170.51 56.5607 171.539 56.3157 172.701 56.3157C173.835 56.3157 174.843 56.5537 175.725 57.0297C176.607 57.5057 177.293 58.1847 177.783 59.0667C178.287 59.9487 178.539 60.9777 178.539 62.1537ZM174.864 61.2087C174.864 60.5927 174.654 60.1027 174.234 59.7387C173.814 59.3747 173.289 59.1927 172.659 59.1927C172.057 59.1927 171.546 59.3677 171.126 59.7177C170.72 60.0677 170.468 60.5647 170.37 61.2087H174.864ZM184.024 52.6617V68.2017H180.433V52.6617H184.024Z" fill="white"/>
</g>
<defs>
<filter id="filter0_d_168_443" x="474.293" y="30.8476" width="341.643" height="194.126" filterUnits="userSpaceOnUse" color-interpolation-filters="sRGB">
<feFlood flood-opacity="0" result="BackgroundImageFix"/>
<feColorMatrix in="SourceAlpha" type="matrix" values="0 0 0 0 0 0 0 0 0 0 0 0 0 0 0 0 0 0 127 0" result="hardAlpha"/>
<feOffset dx="-4" dy="-4"/>
<feGaussianBlur stdDeviation="4"/>
<feComposite in2="hardAlpha" operator="out"/>
<feColorMatrix type="matrix" values="0 0 0 0 0 0 0 0 0 0 0 0 0 0 0 0 0 0 0.5 0"/>
<feBlend mode="normal" in2="BackgroundImageFix" result="effect1_dropShadow_168_443"/>
<feBlend mode="normal" in="SourceGraphic" in2="effect1_dropShadow_168_443" result="shape"/>
</filter>
<filter id="filter1_d_168_443" x="558.57" y="95.399" width="341.643" height="194.126" filterUnits="userSpaceOnUse" color-interpolation-filters="sRGB">
<feFlood flood-opacity="0" result="BackgroundImageFix"/>
<feColorMatrix in="SourceAlpha" type="matrix" values="0 0 0 0 0 0 0 0 0 0 0 0 0 0 0 0 0 0 127 0" result="hardAlpha"/>
<feOffset dx="-4" dy="-4"/>
<feGaussianBlur stdDeviation="4"/>
<feComposite in2="hardAlpha" operator="out"/>
<feColorMatrix type="matrix" values="0 0 0 0 0 0 0 0 0 0 0 0 0 0 0 0 0 0 0.5 0"/>
<feBlend mode="normal" in2="BackgroundImageFix" result="effect1_dropShadow_168_443"/>
<feBlend mode="normal" in="SourceGraphic" in2="effect1_dropShadow_168_443" result="shape"/>
</filter>
<filter id="filter2_d_168_443" x="642.847" y="159.95" width="341.643" height="194.126" filterUnits="userSpaceOnUse" color-interpolation-filters="sRGB">
<feFlood flood-opacity="0" result="BackgroundImageFix"/>
<feColorMatrix in="SourceAlpha" type="matrix" values="0 0 0 0 0 0 0 0 0 0 0 0 0 0 0 0 0 0 127 0" result="hardAlpha"/>
<feOffset dx="-4" dy="-4"/>
<feGaussianBlur stdDeviation="4"/>
<feComposite in2="hardAlpha" operator="out"/>
<feColorMatrix type="matrix" values="0 0 0 0 0 0 0 0 0 0 0 0 0 0 0 0 0 0 0.5 0"/>
<feBlend mode="normal" in2="BackgroundImageFix" result="effect1_dropShadow_168_443"/>
<feBlend mode="normal" in="SourceGraphic" in2="effect1_dropShadow_168_443" result="shape"/>
</filter>
<filter id="filter3_d_168_443" x="16.4902" y="16.4622" width="341.643" height="352" filterUnits="userSpaceOnUse" color-interpolation-filters="sRGB">
<feFlood flood-opacity="0" result="BackgroundImageFix"/>
<feColorMatrix in="SourceAlpha" type="matrix" values="0 0 0 0 0 0 0 0 0 0 0 0 0 0 0 0 0 0 127 0" result="hardAlpha"/>
<feOffset dx="-4" dy="-4"/>
<feGaussianBlur stdDeviation="4"/>
<feComposite in2="hardAlpha" operator="out"/>
<feColorMatrix type="matrix" values="0 0 0 0 0 0 0 0 0 0 0 0 0 0 0 0 0 0 0.5 0"/>
<feBlend mode="normal" in2="BackgroundImageFix" result="effect1_dropShadow_168_443"/>
<feBlend mode="normal" in="SourceGraphic" in2="effect1_dropShadow_168_443" result="shape"/>
</filter>
</defs>
</svg>
